<svg width="156" height="191" viewBox="0 0 156 191" fill="none" xmlns="http://www.w3.org/2000/svg">
<path d="M155.5 70.8221C155.5 109.616 120.849 141.144 78 141.144C35.1514 141.144 0.5 109.616 0.5 70.8221C0.5 32.0286 35.1514 0.5 78 0.5C120.849 0.5 155.5 32.0286 155.5 70.8221Z" fill="#FFFDFD" stroke="#27A042"/>
<path fill-rule="evenodd" clip-rule="evenodd" d="M77.5592 58.1258C77.7585 57.9692 86.0804 51.4951 91.5808 57.8727C94.6004 61.3739 94.3444 65.0063 93.2239 68.5635L89.2816 79.8565C88.1289 83.783 87.307 84.9951 85.2874 86.701C84.0886 87.7135 82.7366 85.9646 81.3138 84.1239C80.0812 82.5293 78.7954 80.8658 77.5098 80.8697C76.203 80.8737 74.8965 82.5398 73.6465 84.1338C72.2048 85.9724 70.8383 87.715 69.6331 86.701C67.1996 84.6532 66.1324 81.8237 65.0169 77.2829C64.8022 76.4087 64.4755 75.3602 64.1153 74.2039C62.6044 69.3544 60.5028 62.6083 63.5853 58.8657C67.3919 54.2442 72.12 53.5002 77.5088 58.0887L77.5592 58.1258ZM74.9001 58.6004C73.0357 57.3193 71.4509 56.9118 70.1308 57.0157C68.5088 57.1432 66.8241 58.0794 65.1291 60.1373C63.8544 61.6849 63.7246 64.2994 64.4119 67.7151C64.7392 69.3418 65.2167 70.9892 65.6976 72.5539C65.8013 72.8915 65.9067 73.2298 66.0112 73.565C66.3755 74.7341 66.7283 75.8661 66.9592 76.8058C67.9804 80.9629 68.8687 83.1971 70.48 84.7712C70.8126 84.4619 71.2333 83.965 71.7899 83.2597C71.8766 83.1497 71.9666 83.0348 72.0593 82.9164C72.6295 82.1885 73.3048 81.3262 73.9937 80.6369C74.7255 79.9047 75.9352 78.8745 77.5038 78.8697C79.0796 78.8649 80.2861 79.9118 81.003 80.6389C81.6819 81.3276 82.3478 82.1901 82.9098 82.918C83.0017 83.037 83.0908 83.1524 83.1767 83.2629C83.7219 83.9638 84.1349 84.4586 84.4615 84.7681C85.1093 84.1824 85.5294 83.6934 85.8929 83.0853C86.3622 82.3003 86.7993 81.2118 87.3626 79.2931C87.372 79.2609 87.3823 79.229 87.3934 79.1973L91.3253 67.934C91.8394 66.2943 92.1005 64.797 91.9642 63.3899C91.8315 62.0193 91.3116 60.6229 90.0662 59.1789C88.0017 56.7851 85.4653 56.7489 83.0724 57.4904C81.8673 57.8638 80.7857 58.42 79.9936 58.8956C79.6964 59.074 79.4459 59.2375 79.2515 59.3701L83.0925 62.1943C83.5374 62.5215 83.6329 63.1474 83.3057 63.5923C82.9786 64.0373 82.3526 64.1328 81.9077 63.8056L76.4829 59.8168C76.4078 59.769 76.3352 59.7158 76.2657 59.6571L75.1076 58.8056C75.0267 58.7461 74.9574 58.6768 74.9001 58.6004ZM70.1293 85.0449L70.1332 85.043C70.1305 85.0443 70.1293 85.0449 70.1293 85.0449Z" fill="black"/>
<path d="M16.598 186V171.455H21.7827C22.9096 171.455 23.8447 171.649 24.5881 172.037C25.3362 172.425 25.8949 172.963 26.2642 173.649C26.6335 174.331 26.8182 175.119 26.8182 176.014C26.8182 176.904 26.6312 177.688 26.2571 178.365C25.8878 179.037 25.3291 179.561 24.581 179.935C23.8376 180.309 22.9025 180.496 21.7756 180.496H17.848V178.607H21.5767C22.2869 178.607 22.8646 178.505 23.3097 178.301C23.7595 178.098 24.0885 177.802 24.2969 177.413C24.5052 177.025 24.6094 176.559 24.6094 176.014C24.6094 175.465 24.5028 174.989 24.2898 174.587C24.0814 174.184 23.7524 173.876 23.3026 173.663C22.8575 173.446 22.2727 173.337 21.5483 173.337H18.7926V186H16.598ZM23.7784 179.438L27.3722 186H24.8722L21.3494 179.438H23.7784ZM32.4929 186.241C31.8016 186.241 31.1766 186.114 30.6179 185.858C30.0592 185.598 29.6165 185.221 29.2898 184.729C28.9678 184.236 28.8068 183.633 28.8068 182.918C28.8068 182.302 28.9252 181.795 29.1619 181.398C29.3987 181 29.7183 180.685 30.1207 180.453C30.5232 180.221 30.973 180.046 31.4702 179.928C31.9673 179.809 32.474 179.719 32.9901 179.658C33.6435 179.582 34.1738 179.52 34.581 179.473C34.9882 179.421 35.2841 179.338 35.4688 179.224C35.6534 179.111 35.7457 178.926 35.7457 178.67V178.621C35.7457 178 35.5705 177.52 35.2202 177.179C34.8745 176.838 34.3584 176.668 33.6719 176.668C32.9569 176.668 32.3935 176.826 31.9815 177.143C31.5743 177.456 31.2926 177.804 31.1364 178.188L29.1406 177.733C29.3774 177.07 29.723 176.535 30.1776 176.128C30.6368 175.716 31.1648 175.418 31.7614 175.233C32.358 175.044 32.9853 174.949 33.6435 174.949C34.0791 174.949 34.5407 175.001 35.0284 175.105C35.5208 175.205 35.9801 175.389 36.4062 175.659C36.8371 175.929 37.1899 176.315 37.4645 176.817C37.7391 177.314 37.8764 177.96 37.8764 178.756V186H35.8026V184.509H35.7173C35.58 184.783 35.3741 185.053 35.0994 185.318C34.8248 185.583 34.4721 185.804 34.0412 185.979C33.6103 186.154 33.0942 186.241 32.4929 186.241ZM32.9545 184.537C33.5417 184.537 34.0436 184.421 34.4602 184.189C34.8816 183.957 35.2012 183.654 35.419 183.28C35.6416 182.901 35.7528 182.496 35.7528 182.065V180.659C35.6771 180.735 35.5303 180.806 35.3125 180.872C35.0994 180.934 34.8556 180.988 34.581 181.036C34.3063 181.078 34.0388 181.118 33.7784 181.156C33.518 181.189 33.3002 181.218 33.125 181.241C32.7131 181.294 32.3366 181.381 31.9957 181.504C31.6596 181.627 31.3897 181.805 31.1861 182.037C30.9872 182.264 30.8878 182.567 30.8878 182.946C30.8878 183.472 31.0819 183.869 31.4702 184.139C31.8584 184.404 32.3532 184.537 32.9545 184.537ZM44.7887 186.213C43.908 186.213 43.122 185.988 42.4308 185.538C41.7442 185.084 41.2044 184.437 40.8114 183.599C40.4232 182.757 40.229 181.746 40.229 180.567C40.229 179.388 40.4255 178.379 40.8185 177.541C41.2163 176.703 41.7608 176.062 42.4521 175.616C43.1433 175.171 43.927 174.949 44.8029 174.949C45.48 174.949 46.0245 175.062 46.4364 175.29C46.8531 175.512 47.1751 175.773 47.4023 176.071C47.6344 176.369 47.8143 176.632 47.9421 176.859H48.07V171.455H50.1935V186H48.1197V184.303H47.9421C47.8143 184.535 47.6296 184.8 47.3881 185.098C47.1514 185.396 46.8247 185.657 46.408 185.879C45.9914 186.102 45.4516 186.213 44.7887 186.213ZM45.2575 184.402C45.8683 184.402 46.3844 184.241 46.8058 183.919C47.2319 183.592 47.5539 183.14 47.7717 182.562C47.9942 181.985 48.1055 181.312 48.1055 180.545C48.1055 179.788 47.9966 179.125 47.7788 178.557C47.561 177.989 47.2414 177.546 46.82 177.229C46.3986 176.911 45.8777 176.753 45.2575 176.753C44.6183 176.753 44.0856 176.919 43.6594 177.25C43.2333 177.581 42.9113 178.034 42.6935 178.607C42.4805 179.179 42.3739 179.826 42.3739 180.545C42.3739 181.275 42.4828 181.93 42.7006 182.513C42.9184 183.095 43.2404 183.557 43.6665 183.898C44.0974 184.234 44.6277 184.402 45.2575 184.402ZM53.2244 186V175.091H55.348V186H53.2244ZM54.2969 173.408C53.9276 173.408 53.6103 173.285 53.3452 173.038C53.0848 172.787 52.9545 172.489 52.9545 172.143C52.9545 171.793 53.0848 171.495 53.3452 171.249C53.6103 170.998 53.9276 170.872 54.2969 170.872C54.6662 170.872 54.9811 170.998 55.2415 171.249C55.5066 171.495 55.6392 171.793 55.6392 172.143C55.6392 172.489 55.5066 172.787 55.2415 173.038C54.9811 173.285 54.6662 173.408 54.2969 173.408ZM62.8001 186.22C61.7773 186.22 60.8848 185.986 60.1225 185.517C59.3602 185.048 58.7683 184.393 58.3469 183.55C57.9255 182.707 57.7148 181.722 57.7148 180.595C57.7148 179.464 57.9255 178.474 58.3469 177.626C58.7683 176.779 59.3602 176.121 60.1225 175.652C60.8848 175.183 61.7773 174.949 62.8001 174.949C63.8228 174.949 64.7153 175.183 65.4776 175.652C66.2399 176.121 66.8318 176.779 67.2532 177.626C67.6746 178.474 67.8853 179.464 67.8853 180.595C67.8853 181.722 67.6746 182.707 67.2532 183.55C66.8318 184.393 66.2399 185.048 65.4776 185.517C64.7153 185.986 63.8228 186.22 62.8001 186.22ZM62.8072 184.438C63.4701 184.438 64.0193 184.262 64.4549 183.912C64.8905 183.562 65.2125 183.095 65.4208 182.513C65.6339 181.93 65.7404 181.289 65.7404 180.588C65.7404 179.892 65.6339 179.253 65.4208 178.67C65.2125 178.083 64.8905 177.612 64.4549 177.257C64.0193 176.902 63.4701 176.724 62.8072 176.724C62.1396 176.724 61.5856 176.902 61.1452 177.257C60.7096 177.612 60.3853 178.083 60.1722 178.67C59.9639 179.253 59.8597 179.892 59.8597 180.588C59.8597 181.289 59.9639 181.93 60.1722 182.513C60.3853 183.095 60.7096 183.562 61.1452 183.912C61.5856 184.262 62.1396 184.438 62.8072 184.438ZM72.3793 171.455V186H70.2557V171.455H72.3793ZM79.8313 186.22C78.8086 186.22 77.9161 185.986 77.1538 185.517C76.3915 185.048 75.7996 184.393 75.3782 183.55C74.9568 182.707 74.7461 181.722 74.7461 180.595C74.7461 179.464 74.9568 178.474 75.3782 177.626C75.7996 176.779 76.3915 176.121 77.1538 175.652C77.9161 175.183 78.8086 174.949 79.8313 174.949C80.854 174.949 81.7466 175.183 82.5089 175.652C83.2712 176.121 83.863 176.779 84.2844 177.626C84.7058 178.474 84.9165 179.464 84.9165 180.595C84.9165 181.722 84.7058 182.707 84.2844 183.55C83.863 184.393 83.2712 185.048 82.5089 185.517C81.7466 185.986 80.854 186.22 79.8313 186.22ZM79.8384 184.438C80.5013 184.438 81.0505 184.262 81.4862 183.912C81.9218 183.562 82.2437 183.095 82.4521 182.513C82.6651 181.93 82.7717 181.289 82.7717 180.588C82.7717 179.892 82.6651 179.253 82.4521 178.67C82.2437 178.083 81.9218 177.612 81.4862 177.257C81.0505 176.902 80.5013 176.724 79.8384 176.724C79.1708 176.724 78.6168 176.902 78.1765 177.257C77.7409 177.612 77.4165 178.083 77.2035 178.67C76.9951 179.253 76.891 179.892 76.891 180.588C76.891 181.289 76.9951 181.93 77.2035 182.513C77.4165 183.095 77.7409 183.562 78.1765 183.912C78.6168 184.262 79.1708 184.438 79.8384 184.438ZM91.8608 190.318C90.9943 190.318 90.2486 190.205 89.6236 189.977C89.0033 189.75 88.4967 189.449 88.1037 189.075C87.7107 188.701 87.4171 188.292 87.223 187.847L89.0483 187.094C89.1761 187.302 89.3466 187.522 89.5597 187.754C89.7775 187.991 90.071 188.192 90.4403 188.358C90.8144 188.524 91.295 188.607 91.8821 188.607C92.687 188.607 93.3523 188.41 93.8778 188.017C94.4034 187.629 94.6662 187.009 94.6662 186.156V184.011H94.5312C94.4034 184.243 94.2188 184.501 93.9773 184.786C93.7405 185.07 93.4138 185.316 92.9972 185.524C92.5805 185.732 92.0384 185.837 91.3707 185.837C90.509 185.837 89.7325 185.635 89.0412 185.233C88.3546 184.826 87.8101 184.227 87.4077 183.436C87.0099 182.641 86.8111 181.663 86.8111 180.503C86.8111 179.343 87.0076 178.348 87.4006 177.52C87.7983 176.691 88.3428 176.057 89.0341 175.616C89.7254 175.171 90.509 174.949 91.3849 174.949C92.062 174.949 92.6089 175.062 93.0256 175.29C93.4422 175.512 93.7666 175.773 93.9986 176.071C94.2353 176.369 94.4176 176.632 94.5455 176.859H94.7017V175.091H96.7827V186.241C96.7827 187.179 96.5649 187.948 96.1293 188.55C95.6937 189.151 95.1042 189.596 94.3608 189.885C93.6222 190.174 92.7888 190.318 91.8608 190.318ZM91.8395 184.075C92.4503 184.075 92.9664 183.933 93.3878 183.649C93.8139 183.36 94.1359 182.948 94.3537 182.413C94.5762 181.874 94.6875 181.227 94.6875 180.474C94.6875 179.741 94.5786 179.094 94.3608 178.536C94.143 177.977 93.8234 177.541 93.402 177.229C92.9806 176.911 92.4598 176.753 91.8395 176.753C91.2003 176.753 90.6676 176.919 90.2415 177.25C89.8153 177.577 89.4934 178.022 89.2756 178.585C89.0625 179.149 88.956 179.778 88.956 180.474C88.956 181.189 89.0649 181.817 89.2827 182.357C89.5005 182.896 89.8224 183.318 90.2486 183.621C90.6795 183.924 91.2098 184.075 91.8395 184.075ZM106.541 181.476V175.091H108.672V186H106.584V184.111H106.47C106.219 184.693 105.817 185.179 105.263 185.567C104.714 185.95 104.029 186.142 103.21 186.142C102.509 186.142 101.889 185.988 101.349 185.68C100.814 185.368 100.393 184.906 100.085 184.295C99.7822 183.685 99.6307 182.929 99.6307 182.03V175.091H101.754V181.774C101.754 182.518 101.96 183.109 102.372 183.55C102.784 183.99 103.319 184.21 103.977 184.21C104.375 184.21 104.77 184.111 105.163 183.912C105.561 183.713 105.89 183.412 106.151 183.01C106.416 182.607 106.546 182.096 106.541 181.476ZM116.227 186.22C115.152 186.22 114.226 185.991 113.45 185.531C112.678 185.067 112.082 184.416 111.66 183.578C111.243 182.735 111.035 181.748 111.035 180.616C111.035 179.499 111.243 178.514 111.66 177.662C112.082 176.81 112.669 176.144 113.422 175.666C114.179 175.188 115.065 174.949 116.078 174.949C116.693 174.949 117.29 175.051 117.868 175.254C118.445 175.458 118.964 175.777 119.423 176.213C119.882 176.649 120.244 177.214 120.51 177.911C120.775 178.602 120.907 179.442 120.907 180.432V181.185H112.235V179.594H118.826C118.826 179.035 118.713 178.54 118.485 178.109C118.258 177.674 117.939 177.33 117.527 177.08C117.119 176.829 116.641 176.703 116.092 176.703C115.495 176.703 114.975 176.85 114.529 177.143C114.089 177.432 113.748 177.811 113.507 178.28C113.27 178.744 113.152 179.248 113.152 179.793V181.036C113.152 181.765 113.279 182.385 113.535 182.896C113.796 183.408 114.158 183.798 114.622 184.068C115.086 184.333 115.628 184.466 116.248 184.466C116.651 184.466 117.018 184.409 117.349 184.295C117.681 184.177 117.967 184.002 118.208 183.77C118.45 183.538 118.635 183.251 118.762 182.911L120.772 183.273C120.611 183.865 120.323 184.383 119.906 184.828C119.494 185.268 118.975 185.612 118.35 185.858C117.73 186.099 117.022 186.22 116.227 186.22Z" fill="#101010"/>
</svg>
