<svg width="157" height="185" viewBox="0 0 157 185" fill="none" xmlns="http://www.w3.org/2000/svg">
<path d="M28.8267 180H26.4972L31.7315 165.455H34.267L39.5014 180H37.1719L33.0597 168.097H32.946L28.8267 180ZM29.2173 174.304H36.7741V176.151H29.2173V174.304ZM43.555 165.455V180H41.4315V165.455H43.555ZM48.5355 165.455V180H46.4119V165.455H48.5355ZM56.0941 180.22C55.0193 180.22 54.0936 179.991 53.3171 179.531C52.5453 179.067 51.9487 178.416 51.5273 177.578C51.1107 176.735 50.9023 175.748 50.9023 174.616C50.9023 173.499 51.1107 172.514 51.5273 171.662C51.9487 170.81 52.5359 170.144 53.2887 169.666C54.0463 169.188 54.9317 168.949 55.945 168.949C56.5605 168.949 57.1571 169.051 57.7347 169.254C58.3124 169.458 58.8308 169.777 59.2901 170.213C59.7494 170.649 60.1116 171.214 60.3768 171.911C60.6419 172.602 60.7745 173.442 60.7745 174.432V175.185H52.1026V173.594H58.6935C58.6935 173.035 58.5799 172.54 58.3526 172.109C58.1254 171.674 57.8058 171.33 57.3938 171.08C56.9866 170.829 56.5084 170.703 55.9592 170.703C55.3626 170.703 54.8417 170.85 54.3967 171.143C53.9563 171.432 53.6154 171.811 53.3739 172.28C53.1372 172.744 53.0188 173.248 53.0188 173.793V175.036C53.0188 175.765 53.1467 176.385 53.4023 176.896C53.6628 177.408 54.025 177.798 54.489 178.068C54.953 178.333 55.4951 178.466 56.1154 178.466C56.5179 178.466 56.8848 178.409 57.2163 178.295C57.5477 178.177 57.8342 178.002 58.0756 177.77C58.3171 177.538 58.5018 177.251 58.6296 176.911L60.6396 177.273C60.4786 177.865 60.1897 178.383 59.7731 178.828C59.3612 179.268 58.8427 179.612 58.2177 179.858C57.5974 180.099 56.8896 180.22 56.0941 180.22ZM63.1307 180V169.091H65.1832V170.824H65.2969C65.4957 170.237 65.8461 169.775 66.348 169.439C66.8546 169.098 67.4276 168.928 68.0668 168.928C68.1993 168.928 68.3556 168.932 68.5355 168.942C68.7202 168.951 68.8646 168.963 68.9688 168.977V171.009C68.8835 170.985 68.732 170.959 68.5142 170.93C68.2964 170.897 68.0786 170.881 67.8608 170.881C67.3589 170.881 66.9115 170.987 66.5185 171.2C66.1302 171.409 65.8224 171.7 65.5952 172.074C65.3679 172.443 65.2543 172.865 65.2543 173.338V180H63.1307ZM74.9897 184.318C74.1232 184.318 73.3775 184.205 72.7525 183.977C72.1322 183.75 71.6256 183.449 71.2326 183.075C70.8396 182.701 70.546 182.292 70.3519 181.847L72.1772 181.094C72.305 181.302 72.4755 181.522 72.6886 181.754C72.9064 181.991 73.1999 182.192 73.5692 182.358C73.9433 182.524 74.4239 182.607 75.011 182.607C75.8159 182.607 76.4812 182.41 77.0067 182.017C77.5323 181.629 77.7951 181.009 77.7951 180.156V178.011H77.6602C77.5323 178.243 77.3477 178.501 77.1062 178.786C76.8694 179.07 76.5427 179.316 76.1261 179.524C75.7094 179.732 75.1673 179.837 74.4996 179.837C73.6379 179.837 72.8614 179.635 72.1701 179.233C71.4835 178.826 70.939 178.227 70.5366 177.436C70.1388 176.641 69.94 175.663 69.94 174.503C69.94 173.343 70.1365 172.348 70.5295 171.52C70.9272 170.691 71.4717 170.057 72.163 169.616C72.8543 169.171 73.6379 168.949 74.5138 168.949C75.1909 168.949 75.7378 169.062 76.1545 169.29C76.5711 169.512 76.8955 169.773 77.1275 170.071C77.3642 170.369 77.5465 170.632 77.6744 170.859H77.8306V169.091H79.9116V180.241C79.9116 181.179 79.6938 181.948 79.2582 182.55C78.8226 183.151 78.2331 183.596 77.4897 183.885C76.7511 184.174 75.9177 184.318 74.9897 184.318ZM74.9684 178.075C75.5792 178.075 76.0953 177.933 76.5167 177.649C76.9428 177.36 77.2648 176.948 77.4826 176.413C77.7051 175.874 77.8164 175.227 77.8164 174.474C77.8164 173.741 77.7075 173.094 77.4897 172.536C77.2719 171.977 76.9523 171.541 76.5309 171.229C76.1095 170.911 75.5887 170.753 74.9684 170.753C74.3292 170.753 73.7965 170.919 73.3704 171.25C72.9442 171.577 72.6223 172.022 72.4045 172.585C72.1914 173.149 72.0849 173.778 72.0849 174.474C72.0849 175.189 72.1938 175.817 72.4116 176.357C72.6294 176.896 72.9513 177.318 73.3775 177.621C73.8084 177.924 74.3387 178.075 74.9684 178.075ZM87.3548 180.22C86.332 180.22 85.4395 179.986 84.6772 179.517C83.9149 179.048 83.323 178.393 82.9016 177.55C82.4802 176.707 82.2695 175.722 82.2695 174.595C82.2695 173.464 82.4802 172.474 82.9016 171.626C83.323 170.779 83.9149 170.121 84.6772 169.652C85.4395 169.183 86.332 168.949 87.3548 168.949C88.3775 168.949 89.27 169.183 90.0323 169.652C90.7946 170.121 91.3865 170.779 91.8079 171.626C92.2293 172.474 92.44 173.464 92.44 174.595C92.44 175.722 92.2293 176.707 91.8079 177.55C91.3865 178.393 90.7946 179.048 90.0323 179.517C89.27 179.986 88.3775 180.22 87.3548 180.22ZM87.3619 178.438C88.0247 178.438 88.574 178.262 89.0096 177.912C89.4452 177.562 89.7672 177.095 89.9755 176.513C90.1886 175.93 90.2951 175.289 90.2951 174.588C90.2951 173.892 90.1886 173.253 89.9755 172.67C89.7672 172.083 89.4452 171.612 89.0096 171.257C88.574 170.902 88.0247 170.724 87.3619 170.724C86.6942 170.724 86.1403 170.902 85.6999 171.257C85.2643 171.612 84.94 172.083 84.7269 172.67C84.5186 173.253 84.4144 173.892 84.4144 174.588C84.4144 175.289 84.5186 175.93 84.7269 176.513C84.94 177.095 85.2643 177.562 85.6999 177.912C86.1403 178.262 86.6942 178.438 87.3619 178.438ZM96.9339 165.455V180H94.8104V165.455H96.9339ZM104.386 180.22C103.363 180.22 102.471 179.986 101.708 179.517C100.946 179.048 100.354 178.393 99.9329 177.55C99.5115 176.707 99.3008 175.722 99.3008 174.595C99.3008 173.464 99.5115 172.474 99.9329 171.626C100.354 170.779 100.946 170.121 101.708 169.652C102.471 169.183 103.363 168.949 104.386 168.949C105.409 168.949 106.301 169.183 107.064 169.652C107.826 170.121 108.418 170.779 108.839 171.626C109.261 172.474 109.471 173.464 109.471 174.595C109.471 175.722 109.261 176.707 108.839 177.55C108.418 178.393 107.826 179.048 107.064 179.517C106.301 179.986 105.409 180.22 104.386 180.22ZM104.393 178.438C105.056 178.438 105.605 178.262 106.041 177.912C106.476 177.562 106.798 177.095 107.007 176.513C107.22 175.93 107.326 175.289 107.326 174.588C107.326 173.892 107.22 173.253 107.007 172.67C106.798 172.083 106.476 171.612 106.041 171.257C105.605 170.902 105.056 170.724 104.393 170.724C103.725 170.724 103.172 170.902 102.731 171.257C102.296 171.612 101.971 172.083 101.758 172.67C101.55 173.253 101.446 173.892 101.446 174.588C101.446 175.289 101.55 175.93 101.758 176.513C101.971 177.095 102.296 177.562 102.731 177.912C103.172 178.262 103.725 178.438 104.393 178.438ZM116.415 184.318C115.549 184.318 114.803 184.205 114.178 183.977C113.558 183.75 113.051 183.449 112.658 183.075C112.265 182.701 111.972 182.292 111.778 181.847L113.603 181.094C113.731 181.302 113.901 181.522 114.114 181.754C114.332 181.991 114.626 182.192 114.995 182.358C115.369 182.524 115.85 182.607 116.437 182.607C117.242 182.607 117.907 182.41 118.433 182.017C118.958 181.629 119.221 181.009 119.221 180.156V178.011H119.086C118.958 178.243 118.773 178.501 118.532 178.786C118.295 179.07 117.969 179.316 117.552 179.524C117.135 179.732 116.593 179.837 115.925 179.837C115.064 179.837 114.287 179.635 113.596 179.233C112.909 178.826 112.365 178.227 111.962 177.436C111.565 176.641 111.366 175.663 111.366 174.503C111.366 173.343 111.562 172.348 111.955 171.52C112.353 170.691 112.897 170.057 113.589 169.616C114.28 169.171 115.064 168.949 115.94 168.949C116.617 168.949 117.164 169.062 117.58 169.29C117.997 169.512 118.321 169.773 118.553 170.071C118.79 170.369 118.972 170.632 119.1 170.859H119.256V169.091H121.337V180.241C121.337 181.179 121.12 181.948 120.684 182.55C120.248 183.151 119.659 183.596 118.915 183.885C118.177 184.174 117.344 184.318 116.415 184.318ZM116.394 178.075C117.005 178.075 117.521 177.933 117.942 177.649C118.369 177.36 118.691 176.948 118.908 176.413C119.131 175.874 119.242 175.227 119.242 174.474C119.242 173.741 119.133 173.094 118.915 172.536C118.698 171.977 118.378 171.541 117.957 171.229C117.535 170.911 117.014 170.753 116.394 170.753C115.755 170.753 115.222 170.919 114.796 171.25C114.37 171.577 114.048 172.022 113.83 172.585C113.617 173.149 113.511 173.778 113.511 174.474C113.511 175.189 113.62 175.817 113.837 176.357C114.055 176.896 114.377 177.318 114.803 177.621C115.234 177.924 115.764 178.075 116.394 178.075ZM131.096 175.476V169.091H133.227V180H131.138V178.111H131.025C130.774 178.693 130.371 179.179 129.817 179.567C129.268 179.95 128.584 180.142 127.765 180.142C127.064 180.142 126.444 179.988 125.904 179.68C125.369 179.368 124.948 178.906 124.64 178.295C124.337 177.685 124.185 176.929 124.185 176.03V169.091H126.309V175.774C126.309 176.518 126.515 177.109 126.927 177.55C127.339 177.99 127.874 178.21 128.532 178.21C128.93 178.21 129.325 178.111 129.718 177.912C130.116 177.713 130.445 177.412 130.705 177.01C130.97 176.607 131.101 176.096 131.096 175.476ZM140.782 180.22C139.707 180.22 138.781 179.991 138.005 179.531C137.233 179.067 136.636 178.416 136.215 177.578C135.798 176.735 135.59 175.748 135.59 174.616C135.59 173.499 135.798 172.514 136.215 171.662C136.636 170.81 137.223 170.144 137.976 169.666C138.734 169.188 139.619 168.949 140.632 168.949C141.248 168.949 141.845 169.051 142.422 169.254C143 169.458 143.518 169.777 143.978 170.213C144.437 170.649 144.799 171.214 145.064 171.911C145.329 172.602 145.462 173.442 145.462 174.432V175.185H136.79V173.594H143.381C143.381 173.035 143.267 172.54 143.04 172.109C142.813 171.674 142.493 171.33 142.081 171.08C141.674 170.829 141.196 170.703 140.647 170.703C140.05 170.703 139.529 170.85 139.084 171.143C138.644 171.432 138.303 171.811 138.061 172.28C137.825 172.744 137.706 173.248 137.706 173.793V175.036C137.706 175.765 137.834 176.385 138.09 176.896C138.35 177.408 138.712 177.798 139.176 178.068C139.641 178.333 140.183 178.466 140.803 178.466C141.205 178.466 141.572 178.409 141.904 178.295C142.235 178.177 142.522 178.002 142.763 177.77C143.005 177.538 143.189 177.251 143.317 176.911L145.327 177.273C145.166 177.865 144.877 178.383 144.461 178.828C144.049 179.268 143.53 179.612 142.905 179.858C142.285 180.099 141.577 180.22 140.782 180.22Z" fill="#101010"/>
<path d="M155.892 71C155.892 109.892 121.153 141.5 78.1959 141.5C35.2391 141.5 0.5 109.892 0.5 71C0.5 32.1082 35.2391 0.5 78.1959 0.5C121.153 0.5 155.892 32.1082 155.892 71Z" fill="#FFFDFD" stroke="#27A042"/>
<path d="M74.0003 53H78.0003V55.6438C79.2726 55.5664 80.5058 55.6404 81.6139 55.8743C76.9135 57.7244 74.7509 62.4788 74.3968 63.2574L74.375 63.3051C73.2264 63.1307 71.982 62.9857 70.8045 62.9965C69.5911 63.0999 68.4138 63.2792 66.4749 64.3713C66.2015 64.5645 65.8329 64.8814 65.332 65.3646C65.2956 65.3384 65.2566 65.3141 65.2056 65.2822C65.1648 65.2567 65.1161 65.2264 65.0549 65.1864C64.778 65.0055 64.3737 64.7607 63.8807 64.5162C62.8651 64.0123 61.6193 63.5826 60.3984 63.5826V59.7043C62.5095 59.7043 64.4075 60.421 65.7027 61.0636C66.152 61.2865 66.5463 61.5093 66.8726 61.7073C67.1613 61.0911 67.5422 60.518 67.9976 59.9896L65.801 56.5427L69.322 54.2562L71.3485 57.4363C72.1831 57.0059 73.0783 56.6488 74.0003 56.3681V53Z" fill="black"/>
<path d="M84.7567 61.691C83.299 62.3667 82.0372 63.4774 80.8996 65.6154C80.8996 65.6154 78.3757 64.4612 76.3281 63.8613C77.8996 60.6753 79.7283 58.8827 82.425 57.6327C85.0336 56.4235 88.1456 56.1139 91.8425 56.2417L91.6675 61.0001C88.2564 60.8822 86.3024 60.9745 84.7567 61.691Z" fill="black"/>
<path d="M67.2812 66.2195C60.0186 72.6975 70.3937 88.8925 78.694 88.8925C86.9942 88.8925 98.4234 72.7119 90.1068 65.2941C89.9149 65.1229 89.7469 64.9689 89.5909 64.8259C88.9035 64.1956 88.446 63.7762 87.1776 63.022C84.6253 63.022 83.0872 65.5751 82.387 67.1305C82.3514 67.2095 82.3075 67.2832 82.2567 67.3508L80.6425 71.8414L80.0608 73.9296C79.9994 74.1501 80.0154 74.3849 80.1063 74.595L80.7857 76.1652L84.3037 75.7569L84.5343 77.7435L81.2256 78.1276L81.4406 81.2794L79.4453 81.4155L79.177 77.4837L78.2708 75.3892C77.9981 74.759 77.9499 74.0543 78.1341 73.3929L78.1515 73.3305L76.1175 74.2503L74.7876 77.6121L72.9278 76.8764L73.9811 74.214L70.7706 73.4576L71.2292 71.5109L75.2347 72.4546L78.8912 70.8009L80.1208 67.3804C76.9528 65.892 70.4471 63.3956 67.2812 66.2195Z" fill="black"/>
</svg>
