<svg width="156" height="191" viewBox="0 0 156 191" fill="none" xmlns="http://www.w3.org/2000/svg">
<path d="M155.5 70.8221C155.5 109.616 120.849 141.144 78 141.144C35.1514 141.144 0.5 109.616 0.5 70.8221C0.5 32.0286 35.1514 0.5 78 0.5C120.849 0.5 155.5 32.0286 155.5 70.8221Z" fill="#FFFDFD" stroke="#27A042"/>
<path fill-rule="evenodd" clip-rule="evenodd" d="M96 63.0001C96 61.9856 95.6224 61.0594 95 60.3542V54H82V60.3542C81.3776 61.0593 81 61.9856 81 63.0001V73.0001H71.3126L66.617 69.7494C65.3106 68.845 63.5226 69.1384 62.5738 70.4129C61.675 71.6202 61.8307 73.3085 62.9295 74.3313L62.1508 74.4611C60.9097 74.6679 60 75.7418 60 77C60 77.7995 60.3673 78.5245 60.9535 79C60.3673 79.4755 60 80.2005 60 81C60 81.801 60.3687 82.5273 60.9568 83.0027C60.3697 83.4691 60 84.1883 60 84.9835C60 86.2571 60.9481 87.3379 62.222 87.4878C63.8633 87.681 66.704 88 67.688 88V87.9881C67.7909 87.996 67.895 88.0001 68 88.0001H92C94.2091 88.0001 96 86.2092 96 84.0001V63.0001ZM64.3878 85.7203C64.1701 85.264 64.0363 84.76 64.0064 84.2283L62.4503 84.4609C62.1915 84.4996 62 84.7219 62 84.9835C62 85.2521 62.198 85.4712 62.4557 85.5015C63.0264 85.5687 63.7053 85.6465 64.3878 85.7203ZM62.4796 80.4339L64 80.1805V81.8195L62.4796 81.5661C62.2028 81.52 62 81.2806 62 81C62 80.7194 62.2028 80.48 62.4796 80.4339ZM62.4796 77.5661L64 77.8195V77.0001C64 76.714 64.03 76.435 64.0871 76.1659L62.4796 76.4339C62.2028 76.48 62 76.7194 62 77C62 77.2806 62.2028 77.52 62.4796 77.5661ZM65.4786 71.3938L67.8056 73.0047C66.9121 73.0474 66.0954 73.3834 65.4496 73.9184L64.3012 72.8757C63.9399 72.5476 63.8866 71.9987 64.178 71.6072C64.4832 71.1972 65.0584 71.1029 65.4786 71.3938ZM75.0542 86.0001L68.6767 75.0001H68C66.8954 75.0001 66 75.8955 66 77.0001V84.0001C66 85.1046 66.8954 86.0001 68 86.0001H75.0542ZM70.9886 75.0001L77.3661 86.0001H82.0542L75.6767 75.0001H70.9886ZM92.5181 85.9323C92.3529 85.9765 92.1792 86.0001 92 86.0001H84.3661L77.9886 75.0001H81.5858L92.5181 85.9323ZM93.9323 84.518L83 73.5858V70.7853L93.9418 74.4326C93.9611 74.439 93.9805 74.4448 94 74.45V84.0001C94 84.1792 93.9764 84.3528 93.9323 84.518ZM94 63.6861L83 66.8738V68.6771L94 72.3438V63.6861ZM93.5488 61.7345L83 64.7915V63.0001C83 61.8955 83.8954 61.0001 85 61.0001H92C92.6244 61.0001 93.182 61.2862 93.5488 61.7345ZM93 56H84V59H93V56Z" fill="black"/>
<path d="M21.3068 186H16.598V171.455H21.456C22.8812 171.455 24.1051 171.746 25.1278 172.328C26.1506 172.906 26.9342 173.737 27.4787 174.821C28.0279 175.901 28.3026 177.196 28.3026 178.706C28.3026 180.221 28.0256 181.523 27.4716 182.612C26.9223 183.701 26.1269 184.539 25.0852 185.126C24.0436 185.709 22.7841 186 21.3068 186ZM18.7926 184.082H21.1861C22.294 184.082 23.215 183.874 23.9489 183.457C24.6828 183.036 25.232 182.428 25.5966 181.632C25.9612 180.832 26.1435 179.857 26.1435 178.706C26.1435 177.565 25.9612 176.597 25.5966 175.801C25.2367 175.006 24.6993 174.402 23.9844 173.99C23.2694 173.578 22.3816 173.372 21.321 173.372H18.7926V184.082ZM30.8612 186V175.091H32.9847V186H30.8612ZM31.9336 173.408C31.5643 173.408 31.247 173.285 30.9819 173.038C30.7215 172.787 30.5913 172.489 30.5913 172.143C30.5913 171.793 30.7215 171.495 30.9819 171.249C31.247 170.998 31.5643 170.872 31.9336 170.872C32.3029 170.872 32.6178 170.998 32.8782 171.249C33.1433 171.495 33.2759 171.793 33.2759 172.143C33.2759 172.489 33.1433 172.787 32.8782 173.038C32.6178 173.285 32.3029 173.408 31.9336 173.408ZM39.0163 186.241C38.325 186.241 37.7 186.114 37.1413 185.858C36.5826 185.598 36.1399 185.221 35.8132 184.729C35.4912 184.236 35.3303 183.633 35.3303 182.918C35.3303 182.302 35.4486 181.795 35.6854 181.398C35.9221 181 36.2417 180.685 36.6442 180.453C37.0466 180.221 37.4964 180.046 37.9936 179.928C38.4908 179.809 38.9974 179.719 39.5135 179.658C40.1669 179.582 40.6972 179.52 41.1044 179.473C41.5116 179.421 41.8075 179.338 41.9922 179.224C42.1768 179.111 42.2692 178.926 42.2692 178.67V178.621C42.2692 178 42.094 177.52 41.7436 177.179C41.398 176.838 40.8819 176.668 40.1953 176.668C39.4804 176.668 38.9169 176.826 38.505 177.143C38.0978 177.456 37.8161 177.804 37.6598 178.188L35.6641 177.733C35.9008 177.07 36.2464 176.535 36.701 176.128C37.1603 175.716 37.6882 175.418 38.2848 175.233C38.8814 175.044 39.5088 174.949 40.1669 174.949C40.6025 174.949 41.0642 175.001 41.5518 175.105C42.0443 175.205 42.5036 175.389 42.9297 175.659C43.3606 175.929 43.7133 176.315 43.9879 176.817C44.2625 177.314 44.3999 177.96 44.3999 178.756V186H42.326V184.509H42.2408C42.1035 184.783 41.8975 185.053 41.6229 185.318C41.3482 185.583 40.9955 185.804 40.5646 185.979C40.1338 186.154 39.6177 186.241 39.0163 186.241ZM39.478 184.537C40.0651 184.537 40.567 184.421 40.9837 184.189C41.4051 183.957 41.7247 183.654 41.9425 183.28C42.165 182.901 42.2763 182.496 42.2763 182.065V180.659C42.2005 180.735 42.0537 180.806 41.8359 180.872C41.6229 180.934 41.379 180.988 41.1044 181.036C40.8298 181.078 40.5623 181.118 40.3018 181.156C40.0414 181.189 39.8236 181.218 39.6484 181.241C39.2365 181.294 38.8601 181.381 38.5192 181.504C38.183 181.627 37.9131 181.805 37.7095 182.037C37.5107 182.264 37.4112 182.567 37.4112 182.946C37.4112 183.472 37.6054 183.869 37.9936 184.139C38.3819 184.404 38.8767 184.537 39.478 184.537ZM47.3988 186V171.455H49.5224V176.859H49.6502C49.7733 176.632 49.9509 176.369 50.1829 176.071C50.4149 175.773 50.7369 175.512 51.1488 175.29C51.5607 175.062 52.1052 174.949 52.7823 174.949C53.663 174.949 54.449 175.171 55.1403 175.616C55.8316 176.062 56.3737 176.703 56.7667 177.541C57.1644 178.379 57.3633 179.388 57.3633 180.567C57.3633 181.746 57.1668 182.757 56.7738 183.599C56.3808 184.437 55.841 185.084 55.1545 185.538C54.4679 185.988 53.6843 186.213 52.8036 186.213C52.1407 186.213 51.5986 186.102 51.1772 185.879C50.7605 185.657 50.4338 185.396 50.1971 185.098C49.9603 184.8 49.7781 184.535 49.6502 184.303H49.4727V186H47.3988ZM49.4798 180.545C49.4798 181.312 49.591 181.985 49.8136 182.562C50.0361 183.14 50.3581 183.592 50.7795 183.919C51.2009 184.241 51.717 184.402 52.3278 184.402C52.9622 184.402 53.4925 184.234 53.9187 183.898C54.3448 183.557 54.6668 183.095 54.8846 182.513C55.1071 181.93 55.2184 181.275 55.2184 180.545C55.2184 179.826 55.1095 179.179 54.8917 178.607C54.6786 178.034 54.3567 177.581 53.9258 177.25C53.4996 176.919 52.967 176.753 52.3278 176.753C51.7122 176.753 51.1914 176.911 50.7653 177.229C50.3439 177.546 50.0243 177.989 49.8065 178.557C49.5887 179.125 49.4798 179.788 49.4798 180.545ZM64.4496 186.22C63.3748 186.22 62.4491 185.991 61.6726 185.531C60.9008 185.067 60.3042 184.416 59.8828 183.578C59.4661 182.735 59.2578 181.748 59.2578 180.616C59.2578 179.499 59.4661 178.514 59.8828 177.662C60.3042 176.81 60.8913 176.144 61.6442 175.666C62.4018 175.188 63.2872 174.949 64.3004 174.949C64.916 174.949 65.5125 175.051 66.0902 175.254C66.6679 175.458 67.1863 175.777 67.6456 176.213C68.1049 176.649 68.4671 177.214 68.7322 177.911C68.9974 178.602 69.13 179.442 69.13 180.432V181.185H60.4581V179.594H67.049C67.049 179.035 66.9354 178.54 66.7081 178.109C66.4808 177.674 66.1612 177.33 65.7493 177.08C65.3421 176.829 64.8639 176.703 64.3146 176.703C63.718 176.703 63.1972 176.85 62.7521 177.143C62.3118 177.432 61.9709 177.811 61.7294 178.28C61.4927 178.744 61.3743 179.248 61.3743 179.793V181.036C61.3743 181.765 61.5021 182.385 61.7578 182.896C62.0182 183.408 62.3804 183.798 62.8445 184.068C63.3085 184.333 63.8506 184.466 64.4709 184.466C64.8733 184.466 65.2403 184.409 65.5717 184.295C65.9032 184.177 66.1896 184.002 66.4311 183.77C66.6726 183.538 66.8572 183.251 66.9851 182.911L68.995 183.273C68.834 183.865 68.5452 184.383 68.1286 184.828C67.7166 185.268 67.1982 185.612 66.5732 185.858C65.9529 186.099 65.245 186.22 64.4496 186.22ZM63.3416 173.635L65.0036 170.361H67.2408L65.0391 173.635H63.3416ZM76.5785 175.091V176.795H70.6197V175.091H76.5785ZM72.2177 172.477H74.3413V182.797C74.3413 183.209 74.4028 183.519 74.5259 183.727C74.649 183.931 74.8076 184.071 75.0018 184.146C75.2006 184.217 75.4161 184.253 75.6481 184.253C75.8185 184.253 75.9677 184.241 76.0955 184.217C76.2234 184.194 76.3228 184.175 76.3938 184.161L76.7773 185.915C76.6542 185.962 76.479 186.009 76.2518 186.057C76.0245 186.109 75.7404 186.137 75.3995 186.142C74.8408 186.152 74.32 186.052 73.837 185.844C73.354 185.635 72.9634 185.313 72.6651 184.878C72.3668 184.442 72.2177 183.895 72.2177 183.237V172.477ZM83.4055 186.22C82.3828 186.22 81.4903 185.986 80.728 185.517C79.9657 185.048 79.3738 184.393 78.9524 183.55C78.531 182.707 78.3203 181.722 78.3203 180.595C78.3203 179.464 78.531 178.474 78.9524 177.626C79.3738 176.779 79.9657 176.121 80.728 175.652C81.4903 175.183 82.3828 174.949 83.4055 174.949C84.4283 174.949 85.3208 175.183 86.0831 175.652C86.8454 176.121 87.4373 176.779 87.8587 177.626C88.2801 178.474 88.4908 179.464 88.4908 180.595C88.4908 181.722 88.2801 182.707 87.8587 183.55C87.4373 184.393 86.8454 185.048 86.0831 185.517C85.3208 185.986 84.4283 186.22 83.4055 186.22ZM83.4126 184.438C84.0755 184.438 84.6248 184.262 85.0604 183.912C85.496 183.562 85.8179 183.095 86.0263 182.513C86.2393 181.93 86.3459 181.289 86.3459 180.588C86.3459 179.892 86.2393 179.253 86.0263 178.67C85.8179 178.083 85.496 177.612 85.0604 177.257C84.6248 176.902 84.0755 176.724 83.4126 176.724C82.745 176.724 82.1911 176.902 81.7507 177.257C81.3151 177.612 80.9908 178.083 80.7777 178.67C80.5694 179.253 80.4652 179.892 80.4652 180.588C80.4652 181.289 80.5694 181.93 80.7777 182.513C80.9908 183.095 81.3151 183.562 81.7507 183.912C82.1911 184.262 82.745 184.438 83.4126 184.438ZM92.9847 171.455V186H90.8612V171.455H92.9847ZM100.437 186.22C99.4141 186.22 98.5215 185.986 97.7592 185.517C96.9969 185.048 96.4051 184.393 95.9837 183.55C95.5623 182.707 95.3516 181.722 95.3516 180.595C95.3516 179.464 95.5623 178.474 95.9837 177.626C96.4051 176.779 96.9969 176.121 97.7592 175.652C98.5215 175.183 99.4141 174.949 100.437 174.949C101.46 174.949 102.352 175.183 103.114 175.652C103.877 176.121 104.469 176.779 104.89 177.626C105.311 178.474 105.522 179.464 105.522 180.595C105.522 181.722 105.311 182.707 104.89 183.55C104.469 184.393 103.877 185.048 103.114 185.517C102.352 185.986 101.46 186.22 100.437 186.22ZM100.444 184.438C101.107 184.438 101.656 184.262 102.092 183.912C102.527 183.562 102.849 183.095 103.058 182.513C103.271 181.93 103.377 181.289 103.377 180.588C103.377 179.892 103.271 179.253 103.058 178.67C102.849 178.083 102.527 177.612 102.092 177.257C101.656 176.902 101.107 176.724 100.444 176.724C99.7763 176.724 99.2223 176.902 98.782 177.257C98.3464 177.612 98.022 178.083 97.8089 178.67C97.6006 179.253 97.4964 179.892 97.4964 180.588C97.4964 181.289 97.6006 181.93 97.8089 182.513C98.022 183.095 98.3464 183.562 98.782 183.912C99.2223 184.262 99.7763 184.438 100.444 184.438ZM112.466 190.318C111.6 190.318 110.854 190.205 110.229 189.977C109.609 189.75 109.102 189.449 108.709 189.075C108.316 188.701 108.023 188.292 107.828 187.847L109.654 187.094C109.782 187.302 109.952 187.522 110.165 187.754C110.383 187.991 110.676 188.192 111.046 188.358C111.42 188.524 111.9 188.607 112.488 188.607C113.292 188.607 113.958 188.41 114.483 188.017C115.009 187.629 115.272 187.009 115.272 186.156V184.011H115.137C115.009 184.243 114.824 184.501 114.583 184.786C114.346 185.07 114.019 185.316 113.603 185.524C113.186 185.732 112.644 185.837 111.976 185.837C111.114 185.837 110.338 185.635 109.647 185.233C108.96 184.826 108.416 184.227 108.013 183.436C107.615 182.641 107.417 181.663 107.417 180.503C107.417 179.343 107.613 178.348 108.006 177.52C108.404 176.691 108.948 176.057 109.64 175.616C110.331 175.171 111.114 174.949 111.99 174.949C112.667 174.949 113.214 175.062 113.631 175.29C114.048 175.512 114.372 175.773 114.604 176.071C114.841 176.369 115.023 176.632 115.151 176.859H115.307V175.091H117.388V186.241C117.388 187.179 117.17 187.948 116.735 188.55C116.299 189.151 115.71 189.596 114.966 189.885C114.228 190.174 113.394 190.318 112.466 190.318ZM112.445 184.075C113.056 184.075 113.572 183.933 113.993 183.649C114.419 183.36 114.741 182.948 114.959 182.413C115.182 181.874 115.293 181.227 115.293 180.474C115.293 179.741 115.184 179.094 114.966 178.536C114.748 177.977 114.429 177.541 114.007 177.229C113.586 176.911 113.065 176.753 112.445 176.753C111.806 176.753 111.273 176.919 110.847 177.25C110.421 177.577 110.099 178.022 109.881 178.585C109.668 179.149 109.561 179.778 109.561 180.474C109.561 181.189 109.67 181.817 109.888 182.357C110.106 182.896 110.428 183.318 110.854 183.621C111.285 183.924 111.815 184.075 112.445 184.075ZM127.147 181.476V175.091H129.277V186H127.189V184.111H127.076C126.825 184.693 126.422 185.179 125.868 185.567C125.319 185.95 124.635 186.142 123.816 186.142C123.115 186.142 122.495 185.988 121.955 185.68C121.42 185.368 120.998 184.906 120.691 184.295C120.388 183.685 120.236 182.929 120.236 182.03V175.091H122.36V181.774C122.36 182.518 122.566 183.109 122.978 183.55C123.39 183.99 123.925 184.21 124.583 184.21C124.98 184.21 125.376 184.111 125.769 183.912C126.167 183.713 126.496 183.412 126.756 183.01C127.021 182.607 127.151 182.096 127.147 181.476ZM136.832 186.22C135.758 186.22 134.832 185.991 134.055 185.531C133.284 185.067 132.687 184.416 132.266 183.578C131.849 182.735 131.641 181.748 131.641 180.616C131.641 179.499 131.849 178.514 132.266 177.662C132.687 176.81 133.274 176.144 134.027 175.666C134.785 175.188 135.67 174.949 136.683 174.949C137.299 174.949 137.895 175.051 138.473 175.254C139.051 175.458 139.569 175.777 140.028 176.213C140.488 176.649 140.85 177.214 141.115 177.911C141.38 178.602 141.513 179.442 141.513 180.432V181.185H132.841V179.594H139.432C139.432 179.035 139.318 178.54 139.091 178.109C138.864 177.674 138.544 177.33 138.132 177.08C137.725 176.829 137.247 176.703 136.697 176.703C136.101 176.703 135.58 176.85 135.135 177.143C134.695 177.432 134.354 177.811 134.112 178.28C133.875 178.744 133.757 179.248 133.757 179.793V181.036C133.757 181.765 133.885 182.385 134.141 182.896C134.401 183.408 134.763 183.798 135.227 184.068C135.691 184.333 136.233 184.466 136.854 184.466C137.256 184.466 137.623 184.409 137.955 184.295C138.286 184.177 138.572 184.002 138.814 183.77C139.055 183.538 139.24 183.251 139.368 182.911L141.378 183.273C141.217 183.865 140.928 184.383 140.511 184.828C140.099 185.268 139.581 185.612 138.956 185.858C138.336 186.099 137.628 186.22 136.832 186.22Z" fill="#101010"/>
</svg>
