<svg width="156" height="191" viewBox="0 0 156 191" fill="none" xmlns="http://www.w3.org/2000/svg">
<path d="M155.5 70.8221C155.5 109.616 120.849 141.144 78 141.144C35.1514 141.144 0.5 109.616 0.5 70.8221C0.5 32.0286 35.1514 0.5 78 0.5C120.849 0.5 155.5 32.0286 155.5 70.8221Z" fill="#FFFDFD" stroke="#27A042"/>
<path fill-rule="evenodd" clip-rule="evenodd" d="M79.5 62.0002C81.9853 62.0002 84 59.9855 84 57.5002C84 55.015 81.9853 53.0002 79.5 53.0002C77.0147 53.0002 75 55.015 75 57.5002C75 59.9855 77.0147 62.0002 79.5 62.0002ZM84.1172 65.0535C84.1172 65.6353 83.6433 66.1069 83.0586 66.1069C82.474 66.1069 82.0001 65.6353 82.0001 65.0535C82.0001 64.4717 82.474 64.0001 83.0586 64.0001C83.6433 64.0001 84.1172 64.4717 84.1172 65.0535ZM96.0001 86.5001C96.0001 87.8808 92.6422 89.0001 88.5001 89.0001C84.3579 89.0001 81.0001 87.8808 81.0001 86.5001C81.0001 85.1194 84.3579 84.0001 88.5001 84.0001C88.6879 84.0001 88.8742 84.0024 89.0586 84.0069C89.0205 83.8712 89.0001 83.7281 89.0001 83.5802C89.0001 82.7075 89.711 82.0001 90.5879 82.0001C91.4648 82.0001 92.1758 82.7075 92.1758 83.5802C92.1758 83.8353 92.115 84.0763 92.0071 84.2897C94.3821 84.7092 96.0001 85.5417 96.0001 86.5001ZM85.5879 72.1603C86.4648 72.1603 87.1758 71.4529 87.1758 70.5802C87.1758 69.7075 86.4648 69.0001 85.5879 69.0001C84.711 69.0001 84.0001 69.7075 84.0001 70.5802C84.0001 71.4529 84.711 72.1603 85.5879 72.1603ZM91.1172 76.0535C91.1172 76.6353 90.6433 77.1069 90.0586 77.1069C89.474 77.1069 89.0001 76.6353 89.0001 76.0535C89.0001 75.4717 89.474 75.0001 90.0586 75.0001C90.6433 75.0001 91.1172 75.4717 91.1172 76.0535ZM85.0586 80.1069C85.6433 80.1069 86.1172 79.6353 86.1172 79.0535C86.1172 78.4717 85.6433 78.0001 85.0586 78.0001C84.474 78.0001 84.0001 78.4717 84.0001 79.0535C84.0001 79.6353 84.474 80.1069 85.0586 80.1069ZM66.3481 72.3809C67.0065 73.1254 67.6782 73.8129 68.213 74.3391C68.518 74.6392 68.7746 74.883 68.9535 75.0504C69.0428 75.1341 69.1126 75.1985 69.159 75.2411L69.2106 75.2882L69.2224 75.2989L69.2244 75.3007C69.6139 75.6519 69.8502 76.1425 69.8817 76.6661L70.4965 86.8801C70.5629 87.9826 69.7229 88.9303 68.6203 88.9966C67.5178 89.063 66.5701 88.223 66.5038 87.1204L65.9369 77.7032C65.7826 77.556 65.604 77.3836 65.4076 77.1904C64.747 76.5404 63.8685 75.6388 63.0232 74.6536C62.1937 73.6868 61.3242 72.557 60.7431 71.457C60.4534 70.9085 60.186 70.2765 60.0664 69.6129C59.9463 68.9465 59.9483 68.079 60.4234 67.2561C63.1207 62.5841 65.8138 60.3573 68.2515 59.4488C69.4664 58.996 70.5372 58.9027 71.3895 58.9411C72.0578 58.9713 73.0262 59.1564 72.8535 59.1344C73.844 59.2604 74.3395 59.9717 74.5214 60.3257C74.7056 60.6841 74.7732 61.0378 74.8047 61.2517C74.8718 61.7078 74.8665 62.2265 74.8432 62.6894C74.7948 63.6526 74.638 64.8675 74.463 66.0121C74.2857 67.1719 74.0799 68.3218 73.9193 69.1776C73.8905 69.331 73.8631 69.4752 73.8376 69.6086L77.5358 73.6514C78.2813 74.4664 78.225 75.7315 77.41 76.477C76.595 77.2226 75.3299 77.1662 74.5844 76.3512L70.2045 71.5633C69.772 71.0905 69.5922 70.4391 69.721 69.8114L69.7256 69.7889L69.7401 69.7172C69.7529 69.6537 69.7717 69.5598 69.7955 69.4396C69.843 69.1992 69.9101 68.8544 69.9879 68.4399C70.0453 68.1341 70.1082 67.7917 70.1732 67.4263C68.6901 68.7194 67.7286 70.0803 66.7038 71.788L66.3481 72.3809Z" fill="black"/>
<path d="M16.598 186V171.455H21.7827C22.9143 171.455 23.8518 171.661 24.5952 172.072C25.3385 172.484 25.8949 173.048 26.2642 173.763C26.6335 174.473 26.8182 175.273 26.8182 176.163C26.8182 177.058 26.6312 177.863 26.2571 178.578C25.8878 179.288 25.3291 179.852 24.581 180.268C23.8376 180.68 22.9025 180.886 21.7756 180.886H18.2102V179.026H21.5767C22.2917 179.026 22.8717 178.902 23.3168 178.656C23.7618 178.405 24.0885 178.064 24.2969 177.634C24.5052 177.203 24.6094 176.713 24.6094 176.163C24.6094 175.614 24.5052 175.126 24.2969 174.7C24.0885 174.274 23.7595 173.94 23.3097 173.699C22.8646 173.457 22.2775 173.337 21.5483 173.337H18.7926V186H16.598ZM33.7855 186.22C32.7107 186.22 31.785 185.991 31.0085 185.531C30.2367 185.067 29.6402 184.416 29.2188 183.578C28.8021 182.735 28.5938 181.748 28.5938 180.616C28.5938 179.499 28.8021 178.514 29.2188 177.662C29.6402 176.81 30.2273 176.144 30.9801 175.666C31.7377 175.188 32.6231 174.949 33.6364 174.949C34.2519 174.949 34.8485 175.051 35.4261 175.254C36.0038 175.458 36.5223 175.777 36.9815 176.213C37.4408 176.649 37.803 177.214 38.0682 177.911C38.3333 178.602 38.4659 179.442 38.4659 180.432V181.185H29.794V179.594H36.3849C36.3849 179.035 36.2713 178.54 36.044 178.109C35.8168 177.674 35.4972 177.33 35.0852 177.08C34.678 176.829 34.1998 176.703 33.6506 176.703C33.054 176.703 32.5331 176.85 32.0881 177.143C31.6477 177.432 31.3068 177.811 31.0653 178.28C30.8286 178.744 30.7102 179.248 30.7102 179.793V181.036C30.7102 181.765 30.8381 182.385 31.0938 182.896C31.3542 183.408 31.7164 183.798 32.1804 184.068C32.6444 184.333 33.1866 184.466 33.8068 184.466C34.2093 184.466 34.5762 184.409 34.9077 184.295C35.2391 184.177 35.5256 184.002 35.767 183.77C36.0085 183.538 36.1932 183.251 36.321 182.911L38.331 183.273C38.17 183.865 37.8812 184.383 37.4645 184.828C37.0526 185.268 36.5341 185.612 35.9091 185.858C35.2888 186.099 34.581 186.22 33.7855 186.22ZM44.9059 186.213C44.0252 186.213 43.2392 185.988 42.5479 185.538C41.8614 185.084 41.3216 184.437 40.9286 183.599C40.5404 182.757 40.3462 181.746 40.3462 180.567C40.3462 179.388 40.5427 178.379 40.9357 177.541C41.3335 176.703 41.878 176.062 42.5692 175.616C43.2605 175.171 44.0442 174.949 44.9201 174.949C45.5972 174.949 46.1417 175.062 46.5536 175.29C46.9703 175.512 47.2923 175.773 47.5195 176.071C47.7515 176.369 47.9315 176.632 48.0593 176.859H48.1871V171.455H50.3107V186H48.2369V184.303H48.0593C47.9315 184.535 47.7468 184.8 47.5053 185.098C47.2686 185.396 46.9419 185.657 46.5252 185.879C46.1085 186.102 45.5688 186.213 44.9059 186.213ZM45.3746 184.402C45.9854 184.402 46.5015 184.241 46.9229 183.919C47.3491 183.592 47.671 183.14 47.8888 182.562C48.1114 181.985 48.2227 181.312 48.2227 180.545C48.2227 179.788 48.1138 179.125 47.896 178.557C47.6781 177.989 47.3585 177.546 46.9371 177.229C46.5157 176.911 45.9949 176.753 45.3746 176.753C44.7354 176.753 44.2028 176.919 43.7766 177.25C43.3505 177.581 43.0285 178.034 42.8107 178.607C42.5977 179.179 42.4911 179.826 42.4911 180.545C42.4911 181.275 42.6 181.93 42.8178 182.513C43.0356 183.095 43.3576 183.557 43.7837 183.898C44.2146 184.234 44.7449 184.402 45.3746 184.402ZM53.3416 186V175.091H55.4652V186H53.3416ZM54.4141 173.408C54.0447 173.408 53.7275 173.285 53.4624 173.038C53.2019 172.787 53.0717 172.489 53.0717 172.143C53.0717 171.793 53.2019 171.495 53.4624 171.249C53.7275 170.998 54.0447 170.872 54.4141 170.872C54.7834 170.872 55.0982 170.998 55.3587 171.249C55.6238 171.495 55.7564 171.793 55.7564 172.143C55.7564 172.489 55.6238 172.787 55.3587 173.038C55.0982 173.285 54.7834 173.408 54.4141 173.408ZM61.4968 186.241C60.8055 186.241 60.1805 186.114 59.6218 185.858C59.0631 185.598 58.6204 185.221 58.2937 184.729C57.9717 184.236 57.8107 183.633 57.8107 182.918C57.8107 182.302 57.9291 181.795 58.1658 181.398C58.4026 181 58.7222 180.685 59.1246 180.453C59.5271 180.221 59.9769 180.046 60.4741 179.928C60.9712 179.809 61.4779 179.719 61.994 179.658C62.6474 179.582 63.1777 179.52 63.5849 179.473C63.9921 179.421 64.288 179.338 64.4727 179.224C64.6573 179.111 64.7496 178.926 64.7496 178.67V178.621C64.7496 178 64.5745 177.52 64.2241 177.179C63.8784 176.838 63.3623 176.668 62.6758 176.668C61.9608 176.668 61.3974 176.826 60.9854 177.143C60.5782 177.456 60.2965 177.804 60.1403 178.188L58.1445 177.733C58.3813 177.07 58.7269 176.535 59.1815 176.128C59.6407 175.716 60.1687 175.418 60.7653 175.233C61.3619 175.044 61.9892 174.949 62.6474 174.949C63.083 174.949 63.5446 175.001 64.0323 175.105C64.5247 175.205 64.984 175.389 65.4102 175.659C65.841 175.929 66.1938 176.315 66.4684 176.817C66.743 177.314 66.8803 177.96 66.8803 178.756V186H64.8065V184.509H64.7212C64.5839 184.783 64.378 185.053 64.1033 185.318C63.8287 185.583 63.476 185.804 63.0451 185.979C62.6142 186.154 62.0981 186.241 61.4968 186.241ZM61.9585 184.537C62.5456 184.537 63.0475 184.421 63.4641 184.189C63.8855 183.957 64.2051 183.654 64.4229 183.28C64.6455 182.901 64.7567 182.496 64.7567 182.065V180.659C64.681 180.735 64.5342 180.806 64.3164 180.872C64.1033 180.934 63.8595 180.988 63.5849 181.036C63.3103 181.078 63.0427 181.118 62.7823 181.156C62.5219 181.189 62.3041 181.218 62.1289 181.241C61.717 181.294 61.3406 181.381 60.9996 181.504C60.6635 181.627 60.3936 181.805 60.19 182.037C59.9911 182.264 59.8917 182.567 59.8917 182.946C59.8917 183.472 60.0858 183.869 60.4741 184.139C60.8623 184.404 61.3571 184.537 61.9585 184.537ZM74.8011 175.091V176.795H68.8423V175.091H74.8011ZM70.4403 172.477H72.5639V182.797C72.5639 183.209 72.6255 183.519 72.7486 183.727C72.8717 183.931 73.0303 184.071 73.2244 184.146C73.4233 184.217 73.6387 184.253 73.8707 184.253C74.0412 184.253 74.1903 184.241 74.3182 184.217C74.446 184.194 74.5455 184.175 74.6165 184.161L75 185.915C74.8769 185.962 74.7017 186.009 74.4744 186.057C74.2472 186.109 73.9631 186.137 73.6222 186.142C73.0634 186.152 72.5426 186.052 72.0597 185.844C71.5767 185.635 71.1861 185.313 70.8878 184.878C70.5895 184.442 70.4403 183.895 70.4403 183.237V172.477ZM77.1502 186V175.091H79.2028V176.824H79.3164C79.5153 176.237 79.8656 175.775 80.3675 175.439C80.8742 175.098 81.4471 174.928 82.0863 174.928C82.2189 174.928 82.3751 174.932 82.555 174.942C82.7397 174.951 82.8841 174.963 82.9883 174.977V177.009C82.9031 176.985 82.7515 176.959 82.5337 176.93C82.3159 176.897 82.0981 176.881 81.8803 176.881C81.3784 176.881 80.931 176.987 80.538 177.2C80.1497 177.409 79.842 177.7 79.6147 178.074C79.3874 178.443 79.2738 178.865 79.2738 179.338V186H77.1502ZM89.1371 186.22C88.0623 186.22 87.1366 185.991 86.3601 185.531C85.5883 185.067 84.9917 184.416 84.5703 183.578C84.1536 182.735 83.9453 181.748 83.9453 180.616C83.9453 179.499 84.1536 178.514 84.5703 177.662C84.9917 176.81 85.5788 176.144 86.3317 175.666C87.0893 175.188 87.9747 174.949 88.9879 174.949C89.6035 174.949 90.2 175.051 90.7777 175.254C91.3554 175.458 91.8738 175.777 92.3331 176.213C92.7924 176.649 93.1546 177.214 93.4197 177.911C93.6849 178.602 93.8175 179.442 93.8175 180.432V181.185H85.1456V179.594H91.7365C91.7365 179.035 91.6229 178.54 91.3956 178.109C91.1683 177.674 90.8487 177.33 90.4368 177.08C90.0296 176.829 89.5514 176.703 89.0021 176.703C88.4055 176.703 87.8847 176.85 87.4396 177.143C86.9993 177.432 86.6584 177.811 86.4169 178.28C86.1802 178.744 86.0618 179.248 86.0618 179.793V181.036C86.0618 181.765 86.1896 182.385 86.4453 182.896C86.7057 183.408 87.0679 183.798 87.532 184.068C87.996 184.333 88.5381 184.466 89.1584 184.466C89.5608 184.466 89.9278 184.409 90.2592 184.295C90.5907 184.177 90.8771 184.002 91.1186 183.77C91.3601 183.538 91.5447 183.251 91.6726 182.911L93.6825 183.273C93.5215 183.865 93.2327 184.383 92.8161 184.828C92.4041 185.268 91.8857 185.612 91.2607 185.858C90.6404 186.099 89.9325 186.22 89.1371 186.22Z" fill="#101010"/>
</svg>
