<svg width="68" height="67" viewBox="0 0 68 67" fill="none" xmlns="http://www.w3.org/2000/svg">
<ellipse cx="33.8054" cy="33.0498" rx="33.534" ry="32.7718" transform="rotate(-179.523 33.8054 33.0498)" fill="#FFFCFC" fill-opacity="0.75"/>
<path d="M0.772592 32.7748C0.920844 14.963 15.8196 0.627139 34.074 0.779074C52.3284 0.93101 66.9865 15.5129 66.8382 33.3247C66.69 51.1365 51.7912 65.4724 33.5368 65.3205C15.2824 65.1685 0.624339 50.5867 0.772592 32.7748Z" stroke="black" stroke-opacity="0.82"/>
<path d="M28.2316 14.0267C28.6134 14.0287 28.9899 14.1055 29.3336 14.2517C29.6773 14.3978 29.9795 14.6094 30.2178 14.871L42.4467 28.3991C42.8191 28.8026 43.0204 29.3066 43.016 29.8249C43.0116 30.3432 42.8019 30.8438 42.4227 31.2411L29.5326 44.5631C29.095 45.0166 28.4693 45.2989 27.7931 45.3479C27.117 45.3969 26.4458 45.2086 25.9271 44.8245C25.4085 44.4404 25.0849 43.8919 25.0276 43.2996C24.9703 42.7074 25.184 42.1199 25.6216 41.6665L37.1452 29.7655L26.2074 17.6803C25.8977 17.3493 25.7026 16.9477 25.6452 16.523C25.5877 16.0983 25.6704 15.6684 25.8833 15.284C26.0963 14.8996 26.4306 14.5769 26.8468 14.3541C27.2629 14.1313 27.7435 14.0177 28.2316 14.0267Z" fill="#27A042"/>
</svg>
