<svg width="66" height="65" viewBox="0 0 66 65" fill="none" xmlns="http://www.w3.org/2000/svg">
<ellipse cx="33" cy="32.25" rx="33" ry="32.25" fill="#FFFCFC" fill-opacity="0.75"/>
<path d="M65.5 32.25C65.5 49.7743 50.9602 64 33 64C15.0398 64 0.5 49.7743 0.5 32.25C0.5 14.7257 15.0398 0.500015 33 0.500015C50.9602 0.500015 65.5 14.7257 65.5 32.25Z" stroke="black" stroke-opacity="0.82"/>
<path d="M36.6798 48.8343C36.3041 48.8354 35.9329 48.7628 35.5934 48.6218C35.254 48.4808 34.9549 48.275 34.7183 48.0194L22.5721 34.8059C22.2022 34.4119 22 33.9176 22 33.4075C22 32.8974 22.2022 32.4031 22.5721 32.0091L35.1458 18.7956C35.5726 18.3458 36.186 18.063 36.8509 18.0093C37.5159 17.9556 38.178 18.1355 38.6915 18.5093C39.2051 18.8831 39.5281 19.4202 39.5894 20.0026C39.6507 20.5849 39.4453 21.1647 39.0185 21.6144L27.7776 33.4185L38.6413 45.2226C38.9488 45.5458 39.1441 45.9395 39.2041 46.3569C39.2642 46.7743 39.1865 47.1981 38.9801 47.5781C38.7738 47.958 38.4474 48.2782 38.0398 48.5009C37.6321 48.7235 37.1602 48.8392 36.6798 48.8343Z" fill="#27A042"/>
</svg>
