<svg width="157" height="185" viewBox="0 0 157 185" fill="none" xmlns="http://www.w3.org/2000/svg">
<path d="M28.679 170.185H26.4631C26.3778 169.711 26.2192 169.295 25.9872 168.935C25.7552 168.575 25.4711 168.269 25.1349 168.018C24.7988 167.768 24.4223 167.578 24.0057 167.45C23.5938 167.322 23.1558 167.259 22.6918 167.259C21.8537 167.259 21.1032 167.469 20.4403 167.891C19.7822 168.312 19.2614 168.93 18.8778 169.744C18.4991 170.559 18.3097 171.553 18.3097 172.727C18.3097 173.911 18.4991 174.91 18.8778 175.724C19.2614 176.539 19.7846 177.154 20.4474 177.571C21.1103 177.988 21.8561 178.196 22.6847 178.196C23.1439 178.196 23.5795 178.134 23.9915 178.011C24.4081 177.884 24.7846 177.696 25.1207 177.45C25.4569 177.204 25.741 176.903 25.973 176.548C26.2098 176.188 26.3731 175.777 26.4631 175.312L28.679 175.32C28.5606 176.035 28.331 176.693 27.9901 177.294C27.6539 177.891 27.2206 178.407 26.6903 178.842C26.1648 179.273 25.5634 179.607 24.8864 179.844C24.2093 180.08 23.4706 180.199 22.6705 180.199C21.411 180.199 20.2888 179.901 19.304 179.304C18.3191 178.703 17.5426 177.843 16.9744 176.726C16.411 175.608 16.1293 174.276 16.1293 172.727C16.1293 171.174 16.4134 169.841 16.9815 168.729C17.5497 167.611 18.3262 166.754 19.3111 166.158C20.2959 165.556 21.4157 165.256 22.6705 165.256C23.4422 165.256 24.1619 165.367 24.8295 165.589C25.5019 165.807 26.1056 166.129 26.6406 166.555C27.1757 166.977 27.6184 167.493 27.9688 168.104C28.3191 168.71 28.5559 169.403 28.679 170.185ZM34.3093 180.241C33.618 180.241 32.993 180.114 32.4343 179.858C31.8756 179.598 31.4329 179.221 31.1062 178.729C30.7842 178.236 30.6232 177.633 30.6232 176.918C30.6232 176.302 30.7416 175.795 30.9783 175.398C31.2151 175 31.5347 174.685 31.9371 174.453C32.3396 174.221 32.7894 174.046 33.2866 173.928C33.7837 173.809 34.2904 173.719 34.8065 173.658C35.4599 173.582 35.9902 173.52 36.3974 173.473C36.8046 173.421 37.1005 173.338 37.2852 173.224C37.4698 173.111 37.5621 172.926 37.5621 172.67V172.621C37.5621 172 37.387 171.52 37.0366 171.179C36.6909 170.838 36.1748 170.668 35.4883 170.668C34.7733 170.668 34.2099 170.826 33.7979 171.143C33.3907 171.456 33.109 171.804 32.9528 172.188L30.957 171.733C31.1938 171.07 31.5394 170.535 31.994 170.128C32.4532 169.716 32.9812 169.418 33.5778 169.233C34.1744 169.044 34.8017 168.949 35.4599 168.949C35.8955 168.949 36.3571 169.001 36.8448 169.105C37.3372 169.205 37.7965 169.389 38.2227 169.659C38.6535 169.929 39.0063 170.315 39.2809 170.817C39.5555 171.314 39.6928 171.96 39.6928 172.756V180H37.619V178.509H37.5337C37.3964 178.783 37.1905 179.053 36.9158 179.318C36.6412 179.583 36.2885 179.804 35.8576 179.979C35.4267 180.154 34.9106 180.241 34.3093 180.241ZM34.771 178.537C35.3581 178.537 35.86 178.421 36.2766 178.189C36.698 177.957 37.0176 177.654 37.2354 177.28C37.458 176.901 37.5692 176.496 37.5692 176.065V174.659C37.4935 174.735 37.3467 174.806 37.1289 174.872C36.9158 174.934 36.672 174.988 36.3974 175.036C36.1228 175.078 35.8552 175.118 35.5948 175.156C35.3344 175.189 35.1166 175.218 34.9414 175.241C34.5295 175.294 34.1531 175.381 33.8121 175.504C33.476 175.627 33.2061 175.805 33.0025 176.037C32.8036 176.264 32.7042 176.567 32.7042 176.946C32.7042 177.472 32.8983 177.869 33.2866 178.139C33.6748 178.404 34.1696 178.537 34.771 178.537ZM44.6449 173.523V180H42.5213V169.091H44.5597V170.866H44.6946C44.9455 170.289 45.3385 169.825 45.8736 169.474C46.4134 169.124 47.0928 168.949 47.9119 168.949C48.6553 168.949 49.3063 169.105 49.8651 169.418C50.4238 169.725 50.857 170.185 51.1648 170.795C51.4725 171.406 51.6264 172.161 51.6264 173.061V180H49.5028V173.317C49.5028 172.526 49.2969 171.908 48.8849 171.463C48.473 171.013 47.9072 170.788 47.1875 170.788C46.6951 170.788 46.2571 170.895 45.8736 171.108C45.4948 171.321 45.1941 171.634 44.9716 172.045C44.7538 172.453 44.6449 172.945 44.6449 173.523ZM59.0696 180.22C58.0137 180.22 57.1046 179.981 56.3423 179.503C55.5848 179.02 55.0024 178.355 54.5952 177.507C54.188 176.66 53.9844 175.689 53.9844 174.595C53.9844 173.487 54.1927 172.509 54.6094 171.662C55.026 170.81 55.6132 170.144 56.3707 169.666C57.1283 169.188 58.0208 168.949 59.0483 168.949C59.8769 168.949 60.6155 169.103 61.2642 169.411C61.9129 169.714 62.4361 170.14 62.8338 170.689C63.2363 171.238 63.4754 171.88 63.5511 172.614H61.4844C61.3707 172.102 61.1103 171.662 60.7031 171.293C60.3007 170.923 59.7609 170.739 59.0838 170.739C58.492 170.739 57.9735 170.895 57.5284 171.207C57.0881 171.515 56.7448 171.955 56.4986 172.528C56.2524 173.097 56.1293 173.769 56.1293 174.545C56.1293 175.341 56.25 176.027 56.4915 176.605C56.733 177.183 57.0739 177.63 57.5142 177.947C57.9593 178.265 58.4825 178.423 59.0838 178.423C59.4863 178.423 59.8509 178.35 60.1776 178.203C60.509 178.052 60.786 177.836 61.0085 177.557C61.2358 177.277 61.3944 176.941 61.4844 176.548H63.5511C63.4754 177.254 63.2457 177.884 62.8622 178.438C62.4787 178.991 61.965 179.427 61.321 179.744C60.6818 180.062 59.9313 180.22 59.0696 180.22ZM70.5238 180.22C69.449 180.22 68.5233 179.991 67.7468 179.531C66.975 179.067 66.3784 178.416 65.957 177.578C65.5404 176.735 65.332 175.748 65.332 174.616C65.332 173.499 65.5404 172.514 65.957 171.662C66.3784 170.81 66.9656 170.144 67.7184 169.666C68.476 169.188 69.3614 168.949 70.3746 168.949C70.9902 168.949 71.5868 169.051 72.1644 169.254C72.7421 169.458 73.2605 169.777 73.7198 170.213C74.1791 170.649 74.5413 171.214 74.8065 171.911C75.0716 172.602 75.2042 173.442 75.2042 174.432V175.185H66.5323V173.594H73.1232C73.1232 173.035 73.0096 172.54 72.7823 172.109C72.555 171.674 72.2354 171.33 71.8235 171.08C71.4163 170.829 70.9381 170.703 70.3888 170.703C69.7923 170.703 69.2714 170.85 68.8263 171.143C68.386 171.432 68.0451 171.811 67.8036 172.28C67.5669 172.744 67.4485 173.248 67.4485 173.793V175.036C67.4485 175.765 67.5763 176.385 67.832 176.896C68.0924 177.408 68.4547 177.798 68.9187 178.068C69.3827 178.333 69.9248 178.466 70.5451 178.466C70.9476 178.466 71.3145 178.409 71.646 178.295C71.9774 178.177 72.2638 178.002 72.5053 177.77C72.7468 177.538 72.9315 177.251 73.0593 176.911L75.0692 177.273C74.9083 177.865 74.6194 178.383 74.2028 178.828C73.7908 179.268 73.2724 179.612 72.6474 179.858C72.0271 180.099 71.3192 180.22 70.5238 180.22ZM69.4158 167.635L71.0778 164.361H73.315L71.1133 167.635H69.4158ZM77.5604 180V169.091H79.6129V170.824H79.7266C79.9254 170.237 80.2758 169.775 80.7777 169.439C81.2843 169.098 81.8572 168.928 82.4964 168.928C82.629 168.928 82.7853 168.932 82.9652 168.942C83.1499 168.951 83.2943 168.963 83.3984 168.977V171.009C83.3132 170.985 83.1617 170.959 82.9439 170.93C82.7261 170.897 82.5083 170.881 82.2905 170.881C81.7886 170.881 81.3411 170.987 80.9482 171.2C80.5599 171.409 80.2521 171.7 80.0249 172.074C79.7976 172.443 79.6839 172.865 79.6839 173.338V180H77.5604ZM89.4407 180.22C88.418 180.22 87.5254 179.986 86.7631 179.517C86.0008 179.048 85.409 178.393 84.9876 177.55C84.5662 176.707 84.3555 175.722 84.3555 174.595C84.3555 173.464 84.5662 172.474 84.9876 171.626C85.409 170.779 86.0008 170.121 86.7631 169.652C87.5254 169.183 88.418 168.949 89.4407 168.949C90.4634 168.949 91.3559 169.183 92.1183 169.652C92.8806 170.121 93.4724 170.779 93.8938 171.626C94.3152 172.474 94.5259 173.464 94.5259 174.595C94.5259 175.722 94.3152 176.707 93.8938 177.55C93.4724 178.393 92.8806 179.048 92.1183 179.517C91.3559 179.986 90.4634 180.22 89.4407 180.22ZM89.4478 178.438C90.1107 178.438 90.6599 178.262 91.0955 177.912C91.5311 177.562 91.8531 177.095 92.0614 176.513C92.2745 175.93 92.381 175.289 92.381 174.588C92.381 173.892 92.2745 173.253 92.0614 172.67C91.8531 172.083 91.5311 171.612 91.0955 171.257C90.6599 170.902 90.1107 170.724 89.4478 170.724C88.7802 170.724 88.2262 170.902 87.7859 171.257C87.3503 171.612 87.0259 172.083 86.8129 172.67C86.6045 173.253 86.5004 173.892 86.5004 174.588C86.5004 175.289 86.6045 175.93 86.8129 176.513C87.0259 177.095 87.3503 177.562 87.7859 177.912C88.2262 178.262 88.7802 178.438 89.4478 178.438ZM99.0199 165.455V180H96.8963V165.455H99.0199ZM106.472 180.22C105.449 180.22 104.557 179.986 103.794 179.517C103.032 179.048 102.44 178.393 102.019 177.55C101.597 176.707 101.387 175.722 101.387 174.595C101.387 173.464 101.597 172.474 102.019 171.626C102.44 170.779 103.032 170.121 103.794 169.652C104.557 169.183 105.449 168.949 106.472 168.949C107.495 168.949 108.387 169.183 109.15 169.652C109.912 170.121 110.504 170.779 110.925 171.626C111.346 172.474 111.557 173.464 111.557 174.595C111.557 175.722 111.346 176.707 110.925 177.55C110.504 178.393 109.912 179.048 109.15 179.517C108.387 179.986 107.495 180.22 106.472 180.22ZM106.479 178.438C107.142 178.438 107.691 178.262 108.127 177.912C108.562 177.562 108.884 177.095 109.093 176.513C109.306 175.93 109.412 175.289 109.412 174.588C109.412 173.892 109.306 173.253 109.093 172.67C108.884 172.083 108.562 171.612 108.127 171.257C107.691 170.902 107.142 170.724 106.479 170.724C105.811 170.724 105.257 170.902 104.817 171.257C104.382 171.612 104.057 172.083 103.844 172.67C103.636 173.253 103.532 173.892 103.532 174.588C103.532 175.289 103.636 175.93 103.844 176.513C104.057 177.095 104.382 177.562 104.817 177.912C105.257 178.262 105.811 178.438 106.479 178.438ZM118.501 184.318C117.635 184.318 116.889 184.205 116.264 183.977C115.644 183.75 115.137 183.449 114.744 183.075C114.351 182.701 114.058 182.292 113.864 181.847L115.689 181.094C115.817 181.302 115.987 181.522 116.2 181.754C116.418 181.991 116.712 182.192 117.081 182.358C117.455 182.524 117.936 182.607 118.523 182.607C119.328 182.607 119.993 182.41 120.518 182.017C121.044 181.629 121.307 181.009 121.307 180.156V178.011H121.172C121.044 178.243 120.859 178.501 120.618 178.786C120.381 179.07 120.054 179.316 119.638 179.524C119.221 179.732 118.679 179.837 118.011 179.837C117.15 179.837 116.373 179.635 115.682 179.233C114.995 178.826 114.451 178.227 114.048 177.436C113.651 176.641 113.452 175.663 113.452 174.503C113.452 173.343 113.648 172.348 114.041 171.52C114.439 170.691 114.983 170.057 115.675 169.616C116.366 169.171 117.15 168.949 118.026 168.949C118.703 168.949 119.25 169.062 119.666 169.29C120.083 169.512 120.407 169.773 120.639 170.071C120.876 170.369 121.058 170.632 121.186 170.859H121.342V169.091H123.423V180.241C123.423 181.179 123.205 181.948 122.77 182.55C122.334 183.151 121.745 183.596 121.001 183.885C120.263 184.174 119.429 184.318 118.501 184.318ZM118.48 178.075C119.091 178.075 119.607 177.933 120.028 177.649C120.455 177.36 120.777 176.948 120.994 176.413C121.217 175.874 121.328 175.227 121.328 174.474C121.328 173.741 121.219 173.094 121.001 172.536C120.784 171.977 120.464 171.541 120.043 171.229C119.621 170.911 119.1 170.753 118.48 170.753C117.841 170.753 117.308 170.919 116.882 171.25C116.456 171.577 116.134 172.022 115.916 172.585C115.703 173.149 115.597 173.778 115.597 174.474C115.597 175.189 115.705 175.817 115.923 176.357C116.141 176.896 116.463 177.318 116.889 177.621C117.32 177.924 117.85 178.075 118.48 178.075ZM133.182 175.476V169.091H135.312V180H133.224V178.111H133.111C132.86 178.693 132.457 179.179 131.903 179.567C131.354 179.95 130.67 180.142 129.851 180.142C129.15 180.142 128.53 179.988 127.99 179.68C127.455 179.368 127.034 178.906 126.726 178.295C126.423 177.685 126.271 176.929 126.271 176.03V169.091H128.395V175.774C128.395 176.518 128.601 177.109 129.013 177.55C129.425 177.99 129.96 178.21 130.618 178.21C131.016 178.21 131.411 178.111 131.804 177.912C132.202 177.713 132.531 177.412 132.791 177.01C133.056 176.607 133.187 176.096 133.182 175.476ZM142.868 180.22C141.793 180.22 140.867 179.991 140.091 179.531C139.319 179.067 138.722 178.416 138.301 177.578C137.884 176.735 137.676 175.748 137.676 174.616C137.676 173.499 137.884 172.514 138.301 171.662C138.722 170.81 139.309 170.144 140.062 169.666C140.82 169.188 141.705 168.949 142.718 168.949C143.334 168.949 143.931 169.051 144.508 169.254C145.086 169.458 145.604 169.777 146.064 170.213C146.523 170.649 146.885 171.214 147.15 171.911C147.415 172.602 147.548 173.442 147.548 174.432V175.185H138.876V173.594H145.467C145.467 173.035 145.353 172.54 145.126 172.109C144.899 171.674 144.579 171.33 144.167 171.08C143.76 170.829 143.282 170.703 142.733 170.703C142.136 170.703 141.615 170.85 141.17 171.143C140.73 171.432 140.389 171.811 140.147 172.28C139.911 172.744 139.792 173.248 139.792 173.793V175.036C139.792 175.765 139.92 176.385 140.176 176.896C140.436 177.408 140.798 177.798 141.262 178.068C141.726 178.333 142.269 178.466 142.889 178.466C143.291 178.466 143.658 178.409 143.99 178.295C144.321 178.177 144.608 178.002 144.849 177.77C145.091 177.538 145.275 177.251 145.403 176.911L147.413 177.273C147.252 177.865 146.963 178.383 146.547 178.828C146.135 179.268 145.616 179.612 144.991 179.858C144.371 180.099 143.663 180.22 142.868 180.22Z" fill="#101010"/>
<path d="M155.892 71C155.892 109.892 121.153 141.5 78.1959 141.5C35.2391 141.5 0.5 109.892 0.5 71C0.5 32.1082 35.2391 0.5 78.1959 0.5C121.153 0.5 155.892 32.1082 155.892 71Z" fill="#FFFDFD" stroke="#27A042"/>
<path fill-rule="evenodd" clip-rule="evenodd" d="M60.695 69.1883C62.5739 67.0613 65.4255 64.6246 69.086 62.9661C67.1678 65.0932 66 67.9102 66 71C66 74.0898 67.1678 76.9068 69.086 79.0339C65.4255 77.3754 62.5739 74.9387 60.695 72.8117C59.7683 71.7628 59.7683 70.2372 60.695 69.1883ZM59.1961 67.8642C62.604 64.0063 69.0813 59.0927 77.8218 59.0013C77.8811 59.0004 77.9405 59 78 59H78.0291H78.0697C86.9356 59 93.5032 63.97 96.9433 67.8642C98.538 69.6695 98.538 72.3305 96.9433 74.1358C93.5032 78.03 86.9356 83 78.0697 83H78.0291H78C77.9405 83 77.8811 82.9996 77.8218 82.9987C69.0813 82.9073 62.604 77.9937 59.1961 74.1358C57.6013 72.3305 57.6013 69.6695 59.1961 67.8642ZM78.0284 61C77.9677 61.0002 77.9071 61.0005 77.8466 61.0012C72.3945 61.0831 68 65.5284 68 71C68 76.4716 72.3945 80.9169 77.8466 80.9988C77.9071 80.9995 77.9677 80.9998 78.0284 81C83.5382 80.9847 88 76.5134 88 71C88 65.4866 83.5382 61.0153 78.0284 61ZM90 71C90 74.1409 88.7933 76.9999 86.8182 79.1388C90.5918 77.4794 93.5254 74.984 95.4443 72.8117C96.371 71.7628 96.371 70.2372 95.4443 69.1883C93.5254 67.016 90.5918 64.5206 86.8182 62.8612C88.7933 65.0001 90 67.8591 90 71ZM78.0696 77C81.3833 77 84.0696 74.3137 84.0696 71C84.0696 70.0737 83.8597 69.1965 83.4849 68.4132C83.1229 68.7757 82.6225 69 82.0697 69C80.9651 69 80.0697 68.1046 80.0697 67C80.0697 66.4472 80.294 65.9468 80.6565 65.5848C79.8732 65.2099 78.9959 65 78.0696 65C74.7559 65 72.0696 67.6863 72.0696 71C72.0696 74.3137 74.7559 77 78.0696 77Z" fill="black"/>
</svg>
