<svg width="163" height="185" viewBox="0 0 163 185" fill="none" xmlns="http://www.w3.org/2000/svg">
<path d="M33.3068 180H28.598V165.455H33.456C34.8812 165.455 36.1051 165.746 37.1278 166.328C38.1506 166.906 38.9342 167.737 39.4787 168.821C40.0279 169.901 40.3026 171.196 40.3026 172.706C40.3026 174.221 40.0256 175.523 39.4716 176.612C38.9223 177.701 38.1269 178.539 37.0852 179.126C36.0436 179.709 34.7841 180 33.3068 180ZM30.7926 178.082H33.1861C34.294 178.082 35.215 177.874 35.9489 177.457C36.6828 177.036 37.232 176.428 37.5966 175.632C37.9612 174.832 38.1435 173.857 38.1435 172.706C38.1435 171.565 37.9612 170.597 37.5966 169.801C37.2367 169.006 36.6993 168.402 35.9844 167.99C35.2694 167.578 34.3816 167.372 33.321 167.372H30.7926V178.082ZM47.5629 180.22C46.488 180.22 45.5624 179.991 44.7859 179.531C44.0141 179.067 43.4175 178.416 42.9961 177.578C42.5794 176.735 42.3711 175.748 42.3711 174.616C42.3711 173.499 42.5794 172.514 42.9961 171.662C43.4175 170.81 44.0046 170.144 44.7575 169.666C45.515 169.188 46.4004 168.949 47.4137 168.949C48.0292 168.949 48.6258 169.051 49.2035 169.254C49.7811 169.458 50.2996 169.777 50.7589 170.213C51.2182 170.649 51.5804 171.214 51.8455 171.911C52.1107 172.602 52.2433 173.442 52.2433 174.432V175.185H43.5714V173.594H50.1623C50.1623 173.035 50.0487 172.54 49.8214 172.109C49.5941 171.674 49.2745 171.33 48.8626 171.08C48.4554 170.829 47.9772 170.703 47.4279 170.703C46.8313 170.703 46.3105 170.85 45.8654 171.143C45.4251 171.432 45.0842 171.811 44.8427 172.28C44.6059 172.744 44.4876 173.248 44.4876 173.793V175.036C44.4876 175.765 44.6154 176.385 44.8711 176.896C45.1315 177.408 45.4937 177.798 45.9577 178.068C46.4218 178.333 46.9639 178.466 47.5842 178.466C47.9866 178.466 48.3536 178.409 48.685 178.295C49.0165 178.177 49.3029 178.002 49.5444 177.77C49.7859 177.538 49.9705 177.251 50.0984 176.911L52.1083 177.273C51.9473 177.865 51.6585 178.383 51.2418 178.828C50.8299 179.268 50.3114 179.612 49.6864 179.858C49.0662 180.099 48.3583 180.22 47.5629 180.22ZM54.5994 180V169.091H56.652V170.824H56.7656C56.9645 170.237 57.3149 169.775 57.8168 169.439C58.3234 169.098 58.8963 168.928 59.5355 168.928C59.6681 168.928 59.8243 168.932 60.0043 168.942C60.1889 168.951 60.3333 168.963 60.4375 168.977V171.009C60.3523 170.985 60.2008 170.959 59.983 170.93C59.7652 170.897 59.5473 170.881 59.3295 170.881C58.8277 170.881 58.3802 170.987 57.9872 171.2C57.599 171.409 57.2912 171.7 57.0639 172.074C56.8366 172.443 56.723 172.865 56.723 173.338V180H54.5994ZM62.2752 180V169.091H64.3136V170.866H64.4485C64.6758 170.265 65.0475 169.796 65.5636 169.46C66.0797 169.119 66.6976 168.949 67.4173 168.949C68.1464 168.949 68.7572 169.119 69.2496 169.46C69.7468 169.801 70.1138 170.27 70.3505 170.866H70.4641C70.7246 170.284 71.1388 169.82 71.707 169.474C72.2752 169.124 72.9523 168.949 73.7383 168.949C74.7279 168.949 75.5352 169.259 76.1602 169.879C76.7899 170.5 77.1048 171.435 77.1048 172.685V180H74.9812V172.884C74.9812 172.145 74.7799 171.61 74.3775 171.278C73.975 170.947 73.4944 170.781 72.9357 170.781C72.2444 170.781 71.707 170.994 71.3235 171.42C70.94 171.842 70.7482 172.384 70.7482 173.047V180H68.6317V172.749C68.6317 172.157 68.4471 171.681 68.0778 171.321C67.7085 170.961 67.2279 170.781 66.636 170.781C66.2335 170.781 65.8619 170.888 65.521 171.101C65.1848 171.309 64.9125 171.6 64.7042 171.974C64.5006 172.348 64.3988 172.782 64.3988 173.274V180H62.2752ZM83.1257 180.241C82.4344 180.241 81.8094 180.114 81.2507 179.858C80.692 179.598 80.2493 179.221 79.9226 178.729C79.6006 178.236 79.4396 177.633 79.4396 176.918C79.4396 176.302 79.558 175.795 79.7947 175.398C80.0315 175 80.3511 174.685 80.7536 174.453C81.156 174.221 81.6058 174.046 82.103 173.928C82.6001 173.809 83.1068 173.719 83.6229 173.658C84.2763 173.582 84.8066 173.52 85.2138 173.473C85.621 173.421 85.9169 173.338 86.1016 173.224C86.2862 173.111 86.3786 172.926 86.3786 172.67V172.621C86.3786 172 86.2034 171.52 85.853 171.179C85.5073 170.838 84.9912 170.668 84.3047 170.668C83.5897 170.668 83.0263 170.826 82.6143 171.143C82.2071 171.456 81.9254 171.804 81.7692 172.188L79.7734 171.733C80.0102 171.07 80.3558 170.535 80.8104 170.128C81.2696 169.716 81.7976 169.418 82.3942 169.233C82.9908 169.044 83.6181 168.949 84.2763 168.949C84.7119 168.949 85.1735 169.001 85.6612 169.105C86.1536 169.205 86.6129 169.389 87.0391 169.659C87.4699 169.929 87.8227 170.315 88.0973 170.817C88.3719 171.314 88.5092 171.96 88.5092 172.756V180H86.4354V178.509H86.3501C86.2128 178.783 86.0069 179.053 85.7322 179.318C85.4576 179.583 85.1049 179.804 84.674 179.979C84.2431 180.154 83.727 180.241 83.1257 180.241ZM83.5874 178.537C84.1745 178.537 84.6764 178.421 85.093 178.189C85.5144 177.957 85.834 177.654 86.0518 177.28C86.2744 176.901 86.3857 176.496 86.3857 176.065V174.659C86.3099 174.735 86.1631 174.806 85.9453 174.872C85.7322 174.934 85.4884 174.988 85.2138 175.036C84.9392 175.078 84.6716 175.118 84.4112 175.156C84.1508 175.189 83.933 175.218 83.7578 175.241C83.3459 175.294 82.9695 175.381 82.6286 175.504C82.2924 175.627 82.0225 175.805 81.8189 176.037C81.62 176.264 81.5206 176.567 81.5206 176.946C81.5206 177.472 81.7147 177.869 82.103 178.139C82.4912 178.404 82.986 178.537 83.5874 178.537ZM96.43 169.091V170.795H90.4712V169.091H96.43ZM92.0692 166.477H94.1928V176.797C94.1928 177.209 94.2544 177.519 94.3775 177.727C94.5006 177.931 94.6592 178.071 94.8533 178.146C95.0522 178.217 95.2676 178.253 95.4996 178.253C95.6701 178.253 95.8192 178.241 95.9471 178.217C96.0749 178.194 96.1744 178.175 96.2454 178.161L96.6289 179.915C96.5058 179.962 96.3306 180.009 96.1033 180.057C95.8761 180.109 95.592 180.137 95.2511 180.142C94.6924 180.152 94.1715 180.052 93.6886 179.844C93.2056 179.635 92.815 179.313 92.5167 178.878C92.2184 178.442 92.0692 177.895 92.0692 177.237V166.477ZM103.257 180.22C102.234 180.22 101.342 179.986 100.58 179.517C99.8172 179.048 99.2254 178.393 98.804 177.55C98.3826 176.707 98.1719 175.722 98.1719 174.595C98.1719 173.464 98.3826 172.474 98.804 171.626C99.2254 170.779 99.8172 170.121 100.58 169.652C101.342 169.183 102.234 168.949 103.257 168.949C104.28 168.949 105.172 169.183 105.935 169.652C106.697 170.121 107.289 170.779 107.71 171.626C108.132 172.474 108.342 173.464 108.342 174.595C108.342 175.722 108.132 176.707 107.71 177.55C107.289 178.393 106.697 179.048 105.935 179.517C105.172 179.986 104.28 180.22 103.257 180.22ZM103.264 178.438C103.927 178.438 104.476 178.262 104.912 177.912C105.348 177.562 105.67 177.095 105.878 176.513C106.091 175.93 106.197 175.289 106.197 174.588C106.197 173.892 106.091 173.253 105.878 172.67C105.67 172.083 105.348 171.612 104.912 171.257C104.476 170.902 103.927 170.724 103.264 170.724C102.597 170.724 102.043 170.902 101.602 171.257C101.167 171.612 100.842 172.083 100.629 172.67C100.421 173.253 100.317 173.892 100.317 174.588C100.317 175.289 100.421 175.93 100.629 176.513C100.842 177.095 101.167 177.562 101.602 177.912C102.043 178.262 102.597 178.438 103.264 178.438ZM112.836 165.455V180H110.713V165.455H112.836ZM120.288 180.22C119.266 180.22 118.373 179.986 117.611 179.517C116.848 179.048 116.257 178.393 115.835 177.55C115.414 176.707 115.203 175.722 115.203 174.595C115.203 173.464 115.414 172.474 115.835 171.626C116.257 170.779 116.848 170.121 117.611 169.652C118.373 169.183 119.266 168.949 120.288 168.949C121.311 168.949 122.204 169.183 122.966 169.652C123.728 170.121 124.32 170.779 124.741 171.626C125.163 172.474 125.374 173.464 125.374 174.595C125.374 175.722 125.163 176.707 124.741 177.55C124.32 178.393 123.728 179.048 122.966 179.517C122.204 179.986 121.311 180.22 120.288 180.22ZM120.295 178.438C120.958 178.438 121.508 178.262 121.943 177.912C122.379 177.562 122.701 177.095 122.909 176.513C123.122 175.93 123.229 175.289 123.229 174.588C123.229 173.892 123.122 173.253 122.909 172.67C122.701 172.083 122.379 171.612 121.943 171.257C121.508 170.902 120.958 170.724 120.295 170.724C119.628 170.724 119.074 170.902 118.634 171.257C118.198 171.612 117.874 172.083 117.661 172.67C117.452 173.253 117.348 173.892 117.348 174.588C117.348 175.289 117.452 175.93 117.661 176.513C117.874 177.095 118.198 177.562 118.634 177.912C119.074 178.262 119.628 178.438 120.295 178.438ZM132.318 184.318C131.451 184.318 130.706 184.205 130.081 183.977C129.46 183.75 128.954 183.449 128.561 183.075C128.168 182.701 127.874 182.292 127.68 181.847L129.505 181.094C129.633 181.302 129.804 181.522 130.017 181.754C130.234 181.991 130.528 182.192 130.897 182.358C131.271 182.524 131.752 182.607 132.339 182.607C133.144 182.607 133.809 182.41 134.335 182.017C134.86 181.629 135.123 181.009 135.123 180.156V178.011H134.988C134.86 178.243 134.676 178.501 134.434 178.786C134.198 179.07 133.871 179.316 133.454 179.524C133.038 179.732 132.495 179.837 131.828 179.837C130.966 179.837 130.19 179.635 129.498 179.233C128.812 178.826 128.267 178.227 127.865 177.436C127.467 176.641 127.268 175.663 127.268 174.503C127.268 173.343 127.465 172.348 127.858 171.52C128.255 170.691 128.8 170.057 129.491 169.616C130.182 169.171 130.966 168.949 131.842 168.949C132.519 168.949 133.066 169.062 133.483 169.29C133.899 169.512 134.224 169.773 134.456 170.071C134.692 170.369 134.875 170.632 135.002 170.859H135.159V169.091H137.24V180.241C137.24 181.179 137.022 181.948 136.586 182.55C136.151 183.151 135.561 183.596 134.818 183.885C134.079 184.174 133.246 184.318 132.318 184.318ZM132.297 178.075C132.907 178.075 133.423 177.933 133.845 177.649C134.271 177.36 134.593 176.948 134.811 176.413C135.033 175.874 135.145 175.227 135.145 174.474C135.145 173.741 135.036 173.094 134.818 172.536C134.6 171.977 134.28 171.541 133.859 171.229C133.438 170.911 132.917 170.753 132.297 170.753C131.657 170.753 131.125 170.919 130.699 171.25C130.272 171.577 129.95 172.022 129.733 172.585C129.52 173.149 129.413 173.778 129.413 174.474C129.413 175.189 129.522 175.817 129.74 176.357C129.958 176.896 130.279 177.318 130.706 177.621C131.136 177.924 131.667 178.075 132.297 178.075ZM146.998 175.476V169.091H149.129V180H147.041V178.111H146.927C146.676 178.693 146.274 179.179 145.72 179.567C145.171 179.95 144.486 180.142 143.667 180.142C142.967 180.142 142.346 179.988 141.806 179.68C141.271 179.368 140.85 178.906 140.542 178.295C140.239 177.685 140.088 176.929 140.088 176.03V169.091H142.211V175.774C142.211 176.518 142.417 177.109 142.829 177.55C143.241 177.99 143.776 178.21 144.434 178.21C144.832 178.21 145.227 178.111 145.62 177.912C146.018 177.713 146.347 177.412 146.608 177.01C146.873 176.607 147.003 176.096 146.998 175.476ZM156.684 180.22C155.609 180.22 154.683 179.991 153.907 179.531C153.135 179.067 152.539 178.416 152.117 177.578C151.701 176.735 151.492 175.748 151.492 174.616C151.492 173.499 151.701 172.514 152.117 171.662C152.539 170.81 153.126 170.144 153.879 169.666C154.636 169.188 155.522 168.949 156.535 168.949C157.15 168.949 157.747 169.051 158.325 169.254C158.902 169.458 159.421 169.777 159.88 170.213C160.339 170.649 160.701 171.214 160.967 171.911C161.232 172.602 161.364 173.442 161.364 174.432V175.185H152.692V173.594H159.283C159.283 173.035 159.17 172.54 158.942 172.109C158.715 171.674 158.396 171.33 157.984 171.08C157.576 170.829 157.098 170.703 156.549 170.703C155.952 170.703 155.432 170.85 154.987 171.143C154.546 171.432 154.205 171.811 153.964 172.28C153.727 172.744 153.609 173.248 153.609 173.793V175.036C153.609 175.765 153.737 176.385 153.992 176.896C154.253 177.408 154.615 177.798 155.079 178.068C155.543 178.333 156.085 178.466 156.705 178.466C157.108 178.466 157.475 178.409 157.806 178.295C158.138 178.177 158.424 178.002 158.665 177.77C158.907 177.538 159.092 177.251 159.219 176.911L161.229 177.273C161.068 177.865 160.78 178.383 160.363 178.828C159.951 179.268 159.433 179.612 158.808 179.858C158.187 180.099 157.479 180.22 156.684 180.22Z" fill="#101010"/>
<path d="M155.892 71C155.892 109.892 121.153 141.5 78.1959 141.5C35.2391 141.5 0.5 109.892 0.5 71C0.5 32.1082 35.2391 0.5 78.1959 0.5C121.153 0.5 155.892 32.1082 155.892 71Z" fill="#FFFDFD" stroke="#27A042"/>
<path fill-rule="evenodd" clip-rule="evenodd" d="M72.9826 73.9827C72.983 74.535 72.5357 74.9831 71.9834 74.9835C71.4311 74.984 70.983 74.5366 70.9826 73.9844C70.9821 73.4321 71.4294 72.984 71.9817 72.9835C72.534 72.9831 72.9821 73.4304 72.9826 73.9827ZM77.9834 74.9786C77.9838 75.5309 77.5365 75.979 76.9842 75.9794C76.4319 75.9799 75.9838 75.5325 75.9834 74.9803C75.9829 74.428 76.4303 73.9799 76.9825 73.9794C77.5348 73.979 77.9829 74.4263 77.9834 74.9786ZM73.9875 79.9819C74.5397 79.9814 74.9871 79.5334 74.9866 78.9811C74.9862 78.4288 74.5381 77.9814 73.9858 77.9819C73.4335 77.9824 72.9862 78.4304 72.9866 78.9827C72.9871 79.535 73.4352 79.9824 73.9875 79.9819ZM79.9858 77.977C79.9863 78.5293 79.5389 78.9774 78.9866 78.9778C78.4344 78.9783 77.9863 78.5309 77.9858 77.9786C77.9854 77.4263 78.4327 76.9783 78.985 76.9778C79.5373 76.9774 79.9854 77.4247 79.9858 77.977ZM80.9899 82.9762C81.5422 82.9757 81.9896 82.5276 81.9891 81.9753C81.9886 81.4231 81.5406 80.9757 80.9883 80.9762C80.436 80.9766 79.9886 81.4247 79.9891 81.977C79.9896 82.5293 80.4376 82.9766 80.9899 82.9762ZM83.9858 77.9737C83.9863 78.526 83.5389 78.9741 82.9866 78.9745C82.4344 78.975 81.9863 78.5276 81.9858 77.9753C81.9854 77.4231 82.4327 76.975 82.985 76.9745C83.5373 76.9741 83.9854 77.4214 83.9858 77.9737ZM75.9907 83.9803C76.543 83.9798 76.9904 83.5317 76.9899 82.9794C76.9895 82.4272 76.5414 81.9798 75.9891 81.9803C75.4368 81.9807 74.9895 82.4288 74.9899 82.9811C74.9904 83.5334 75.4385 83.9807 75.9907 83.9803ZM71.9891 81.9835C71.9896 82.5358 71.5422 82.9839 70.9899 82.9844C70.4376 82.9848 69.9896 82.5375 69.9891 81.9852C69.9887 81.4329 70.436 80.9848 70.9883 80.9844C71.5406 80.9839 71.9887 81.4313 71.9891 81.9835ZM68.9866 78.986C69.5389 78.9855 69.9863 78.5375 69.9858 77.9852C69.9854 77.4329 69.5373 76.9855 68.985 76.986C68.4327 76.9864 67.9854 77.4345 67.9858 77.9868C67.9863 78.5391 68.4344 78.9864 68.9866 78.986Z" fill="black"/>
<path fill-rule="evenodd" clip-rule="evenodd" d="M76.5 53C77.3284 53 78 53.6716 78 54.5V70H80V57.5C80 56.6716 80.6716 56 81.5 56C82.3284 56 83 56.6716 83 57.5V73.0855C83 74.9898 85.4096 75.8165 86.5787 74.3133L89.7652 70.2164C90.3798 69.4262 91.5775 69.4367 92.1782 70.2376C92.5503 70.7338 92.5832 71.4064 92.2613 71.9366L85.0573 83.7992C83.0962 87.0283 79.5921 89 75.8141 89C69.8416 89 65 84.1584 65 78.1859V63.5C65 62.6716 65.6716 62 66.5 62C67.3284 62 68 62.6716 68 63.5V72.1176H70V57.5C70 56.6716 70.6716 56 71.5 56C72.3284 56 73 56.6716 73 57.5V70H75V54.5C75 53.6716 75.6716 53 76.5 53ZM73.0037 54.3386C73.088 52.4805 74.6211 51 76.5 51C78.3789 51 79.912 52.4805 79.9963 54.3386C80.4519 54.1215 80.9618 54 81.5 54C83.433 54 85 55.567 85 57.5V73.0855L88.1865 68.9885C89.6107 67.1574 92.3863 67.1817 93.7782 69.0376C94.6406 70.1874 94.7168 71.7462 93.9707 72.9747L86.7667 84.8373C84.443 88.6637 80.2908 91 75.8141 91C68.7371 91 63 85.2629 63 78.1859V63.5C63 61.567 64.567 60 66.5 60C67.0368 60 67.5454 60.1208 68 60.3368V57.5C68 55.567 69.567 54 71.5 54C72.0382 54 72.5481 54.1215 73.0037 54.3386Z" fill="black"/>
</svg>
