<svg width="157" height="185" viewBox="0 0 157 185" fill="none" xmlns="http://www.w3.org/2000/svg">
<path d="M21.5312 169.276C21.4555 168.603 21.143 168.082 20.5938 167.713C20.0445 167.339 19.3532 167.152 18.5199 167.152C17.9233 167.152 17.4072 167.247 16.9716 167.436C16.536 167.621 16.1974 167.876 15.956 168.203C15.7192 168.525 15.6009 168.892 15.6009 169.304C15.6009 169.65 15.6813 169.948 15.8423 170.199C16.008 170.45 16.2235 170.661 16.4886 170.831C16.7585 170.997 17.0473 171.136 17.3551 171.25C17.6629 171.359 17.9588 171.449 18.2429 171.52L19.6634 171.889C20.1274 172.003 20.6032 172.157 21.0909 172.351C21.5786 172.545 22.0308 172.801 22.4474 173.118C22.8641 173.435 23.2003 173.828 23.456 174.297C23.7164 174.766 23.8466 175.327 23.8466 175.98C23.8466 176.804 23.6335 177.536 23.2074 178.175C22.786 178.814 22.1728 179.318 21.3679 179.688C20.5677 180.057 19.5994 180.241 18.4631 180.241C17.3741 180.241 16.4318 180.069 15.6364 179.723C14.8409 179.377 14.2183 178.887 13.7685 178.253C13.3187 177.614 13.0701 176.856 13.0227 175.98H15.2244C15.267 176.506 15.4375 176.944 15.7358 177.294C16.0388 177.64 16.4247 177.898 16.8935 178.068C17.367 178.234 17.8854 178.317 18.4489 178.317C19.0691 178.317 19.6207 178.22 20.1037 178.026C20.5914 177.827 20.9749 177.552 21.2543 177.202C21.5336 176.847 21.6733 176.432 21.6733 175.959C21.6733 175.528 21.5502 175.175 21.304 174.901C21.0625 174.626 20.7334 174.399 20.3168 174.219C19.9048 174.039 19.4384 173.88 18.9176 173.743L17.1989 173.274C16.0341 172.957 15.1108 172.491 14.429 171.875C13.7519 171.259 13.4134 170.445 13.4134 169.432C13.4134 168.594 13.6406 167.862 14.0952 167.237C14.5497 166.612 15.1652 166.127 15.9418 165.781C16.7183 165.431 17.5942 165.256 18.5696 165.256C19.5545 165.256 20.4233 165.429 21.1761 165.774C21.9337 166.12 22.5303 166.596 22.9659 167.202C23.4015 167.803 23.6288 168.494 23.6477 169.276H21.5312ZM31.0004 180.22C29.9255 180.22 28.9999 179.991 28.2234 179.531C27.4516 179.067 26.855 178.416 26.4336 177.578C26.0169 176.735 25.8086 175.748 25.8086 174.616C25.8086 173.499 26.0169 172.514 26.4336 171.662C26.855 170.81 27.4421 170.144 28.195 169.666C28.9525 169.188 29.8379 168.949 30.8512 168.949C31.4667 168.949 32.0633 169.051 32.641 169.254C33.2186 169.458 33.7371 169.777 34.1964 170.213C34.6557 170.649 35.0179 171.214 35.283 171.911C35.5482 172.602 35.6808 173.442 35.6808 174.432V175.185H27.0089V173.594H33.5998C33.5998 173.035 33.4862 172.54 33.2589 172.109C33.0316 171.674 32.712 171.33 32.3001 171.08C31.8929 170.829 31.4147 170.703 30.8654 170.703C30.2688 170.703 29.748 170.85 29.3029 171.143C28.8626 171.432 28.5217 171.811 28.2802 172.28C28.0434 172.744 27.9251 173.248 27.9251 173.793V175.036C27.9251 175.765 28.0529 176.385 28.3086 176.896C28.569 177.408 28.9312 177.798 29.3952 178.068C29.8593 178.333 30.4014 178.466 31.0217 178.466C31.4241 178.466 31.7911 178.409 32.1225 178.295C32.454 178.177 32.7404 178.002 32.9819 177.77C33.2234 177.538 33.408 177.251 33.5359 176.911L35.5458 177.273C35.3848 177.865 35.096 178.383 34.6793 178.828C34.2674 179.268 33.7489 179.612 33.1239 179.858C32.5037 180.099 31.7958 180.22 31.0004 180.22ZM39.4592 169.091L41.8668 173.338L44.2958 169.091H46.6183L43.2163 174.545L46.6467 180H44.3242L41.8668 175.923L39.4165 180H37.087L40.4819 174.545L37.1296 169.091H39.4592ZM52.9641 180.22C51.9414 180.22 51.0489 179.986 50.2866 179.517C49.5243 179.048 48.9324 178.393 48.511 177.55C48.0896 176.707 47.8789 175.722 47.8789 174.595C47.8789 173.464 48.0896 172.474 48.511 171.626C48.9324 170.779 49.5243 170.121 50.2866 169.652C51.0489 169.183 51.9414 168.949 52.9641 168.949C53.9869 168.949 54.8794 169.183 55.6417 169.652C56.404 170.121 56.9959 170.779 57.4173 171.626C57.8387 172.474 58.0494 173.464 58.0494 174.595C58.0494 175.722 57.8387 176.707 57.4173 177.55C56.9959 178.393 56.404 179.048 55.6417 179.517C54.8794 179.986 53.9869 180.22 52.9641 180.22ZM52.9712 178.438C53.6341 178.438 54.1834 178.262 54.619 177.912C55.0546 177.562 55.3765 177.095 55.5849 176.513C55.7979 175.93 55.9045 175.289 55.9045 174.588C55.9045 173.892 55.7979 173.253 55.5849 172.67C55.3765 172.083 55.0546 171.612 54.619 171.257C54.1834 170.902 53.6341 170.724 52.9712 170.724C52.3036 170.724 51.7496 170.902 51.3093 171.257C50.8737 171.612 50.5494 172.083 50.3363 172.67C50.128 173.253 50.0238 173.892 50.0238 174.588C50.0238 175.289 50.128 175.93 50.3363 176.513C50.5494 177.095 50.8737 177.562 51.3093 177.912C51.7496 178.262 52.3036 178.438 52.9712 178.438ZM62.5433 165.455V180H60.4197V165.455H62.5433ZM69.9954 180.22C68.9727 180.22 68.0801 179.986 67.3178 179.517C66.5555 179.048 65.9637 178.393 65.5423 177.55C65.1209 176.707 64.9102 175.722 64.9102 174.595C64.9102 173.464 65.1209 172.474 65.5423 171.626C65.9637 170.779 66.5555 170.121 67.3178 169.652C68.0801 169.183 68.9727 168.949 69.9954 168.949C71.0181 168.949 71.9106 169.183 72.6729 169.652C73.4353 170.121 74.0271 170.779 74.4485 171.626C74.8699 172.474 75.0806 173.464 75.0806 174.595C75.0806 175.722 74.8699 176.707 74.4485 177.55C74.0271 178.393 73.4353 179.048 72.6729 179.517C71.9106 179.986 71.0181 180.22 69.9954 180.22ZM70.0025 178.438C70.6654 178.438 71.2146 178.262 71.6502 177.912C72.0858 177.562 72.4078 177.095 72.6161 176.513C72.8292 175.93 72.9357 175.289 72.9357 174.588C72.9357 173.892 72.8292 173.253 72.6161 172.67C72.4078 172.083 72.0858 171.612 71.6502 171.257C71.2146 170.902 70.6654 170.724 70.0025 170.724C69.3349 170.724 68.7809 170.902 68.3406 171.257C67.9049 171.612 67.5806 172.083 67.3675 172.67C67.1592 173.253 67.055 173.892 67.055 174.588C67.055 175.289 67.1592 175.93 67.3675 176.513C67.5806 177.095 67.9049 177.562 68.3406 177.912C68.7809 178.262 69.3349 178.438 70.0025 178.438ZM82.0249 184.318C81.1584 184.318 80.4126 184.205 79.7876 183.977C79.1674 183.75 78.6607 183.449 78.2678 183.075C77.8748 182.701 77.5812 182.292 77.3871 181.847L79.2124 181.094C79.3402 181.302 79.5107 181.522 79.7237 181.754C79.9415 181.991 80.2351 182.192 80.6044 182.358C80.9785 182.524 81.459 182.607 82.0462 182.607C82.8511 182.607 83.5163 182.41 84.0419 182.017C84.5675 181.629 84.8303 181.009 84.8303 180.156V178.011H84.6953C84.5675 178.243 84.3828 178.501 84.1413 178.786C83.9046 179.07 83.5779 179.316 83.1612 179.524C82.7446 179.732 82.2024 179.837 81.5348 179.837C80.6731 179.837 79.8965 179.635 79.2053 179.233C78.5187 178.826 77.9742 178.227 77.5717 177.436C77.174 176.641 76.9751 175.663 76.9751 174.503C76.9751 173.343 77.1716 172.348 77.5646 171.52C77.9624 170.691 78.5069 170.057 79.1982 169.616C79.8894 169.171 80.6731 168.949 81.549 168.949C82.2261 168.949 82.773 169.062 83.1896 169.29C83.6063 169.512 83.9306 169.773 84.1626 170.071C84.3994 170.369 84.5817 170.632 84.7095 170.859H84.8658V169.091H86.9467V180.241C86.9467 181.179 86.7289 181.948 86.2933 182.55C85.8577 183.151 85.2682 183.596 84.5249 183.885C83.7862 184.174 82.9529 184.318 82.0249 184.318ZM82.0036 178.075C82.6143 178.075 83.1304 177.933 83.5518 177.649C83.978 177.36 84.3 176.948 84.5178 176.413C84.7403 175.874 84.8516 175.227 84.8516 174.474C84.8516 173.741 84.7427 173.094 84.5249 172.536C84.3071 171.977 83.9875 171.541 83.5661 171.229C83.1446 170.911 82.6238 170.753 82.0036 170.753C81.3643 170.753 80.8317 170.919 80.4055 171.25C79.9794 171.577 79.6574 172.022 79.4396 172.585C79.2266 173.149 79.12 173.778 79.12 174.474C79.12 175.189 79.2289 175.817 79.4467 176.357C79.6645 176.896 79.9865 177.318 80.4126 177.621C80.8435 177.924 81.3738 178.075 82.0036 178.075ZM96.7053 175.476V169.091H98.8359V180H96.7479V178.111H96.6342C96.3833 178.693 95.9808 179.179 95.4268 179.567C94.8776 179.95 94.1934 180.142 93.3743 180.142C92.6735 180.142 92.0533 179.988 91.5135 179.68C90.9785 179.368 90.5571 178.906 90.2493 178.295C89.9463 177.685 89.7947 176.929 89.7947 176.03V169.091H91.9183V175.774C91.9183 176.518 92.1243 177.109 92.5362 177.55C92.9482 177.99 93.4832 178.21 94.1413 178.21C94.5391 178.21 94.9344 178.111 95.3274 177.912C95.7251 177.713 96.0542 177.412 96.3146 177.01C96.5798 176.607 96.71 176.096 96.7053 175.476ZM106.391 180.22C105.316 180.22 104.391 179.991 103.614 179.531C102.842 179.067 102.246 178.416 101.824 177.578C101.408 176.735 101.199 175.748 101.199 174.616C101.199 173.499 101.408 172.514 101.824 171.662C102.246 170.81 102.833 170.144 103.586 169.666C104.343 169.188 105.229 168.949 106.242 168.949C106.857 168.949 107.454 169.051 108.032 169.254C108.609 169.458 109.128 169.777 109.587 170.213C110.046 170.649 110.408 171.214 110.674 171.911C110.939 172.602 111.071 173.442 111.071 174.432V175.185H102.4V173.594H108.99C108.99 173.035 108.877 172.54 108.65 172.109C108.422 171.674 108.103 171.33 107.691 171.08C107.283 170.829 106.805 170.703 106.256 170.703C105.659 170.703 105.139 170.85 104.694 171.143C104.253 171.432 103.912 171.811 103.671 172.28C103.434 172.744 103.316 173.248 103.316 173.793V175.036C103.316 175.765 103.444 176.385 103.699 176.896C103.96 177.408 104.322 177.798 104.786 178.068C105.25 178.333 105.792 178.466 106.412 178.466C106.815 178.466 107.182 178.409 107.513 178.295C107.845 178.177 108.131 178.002 108.373 177.77C108.614 177.538 108.799 177.251 108.926 176.911L110.936 177.273C110.775 177.865 110.487 178.383 110.07 178.828C109.658 179.268 109.14 179.612 108.515 179.858C107.894 180.099 107.186 180.22 106.391 180.22Z" fill="#101010"/>
<path d="M155.892 71C155.892 109.892 121.153 141.5 78.1959 141.5C35.2391 141.5 0.5 109.892 0.5 71C0.5 32.1082 35.2391 0.5 78.1959 0.5C121.153 0.5 155.892 32.1082 155.892 71Z" fill="#FFFDFD" stroke="#27A042"/>
<path d="M60.8163 59.724C60.0157 60.4525 59.7647 61.341 60.2559 62.1285C60.892 63.1483 61.6173 64.0094 62.2596 64.6755C61.7079 64.7201 61.2197 64.912 60.8566 65.2619C60.7127 65.4007 60.5955 65.5574 60.5044 65.7285C59.8689 65.0365 59.1797 64.1821 58.5589 63.187C57.3573 61.2606 58.2755 59.3319 59.4702 58.2448C60.0781 57.6916 60.8297 57.2714 61.5956 57.0932C62.3521 56.9172 63.2585 56.9544 63.9828 57.5351C65.5622 58.8011 66.3679 58.9688 66.9007 59.0154C67.0004 59.0241 67.115 59.0265 67.2427 59.0293C67.807 59.0415 68.6269 59.0592 69.5401 59.6447L68.4605 61.3283C68.0515 61.0661 67.8586 61.0599 67.4139 61.0458C67.2354 61.0401 67.0164 61.0331 66.7265 61.0078C65.7076 60.9187 64.5383 60.5436 62.7319 59.0956C62.6505 59.0303 62.4486 58.9482 62.0489 59.0412C61.6585 59.132 61.206 59.3693 60.8163 59.724Z" fill="black"/>
<path fill-rule="evenodd" clip-rule="evenodd" d="M66.8952 67.1427C68.5755 68.6916 69.0442 70.8084 67.9419 71.8708C66.8397 72.9331 64.5839 72.5388 62.9036 70.9899C61.2232 69.4411 60.7546 67.3243 61.8568 66.2619C62.9591 65.1995 65.2148 65.5939 66.8952 67.1427ZM65.4552 68.5307C66.0441 69.0735 66.3519 69.6573 66.4472 70.0879C66.5001 70.3267 66.4811 70.4535 66.464 70.5085C66.4061 70.5258 66.2719 70.5465 66.0175 70.502C65.5586 70.4218 64.9325 70.1448 64.3436 69.602C63.7547 69.0592 63.4469 68.4754 63.3516 68.0448C63.2987 67.806 63.3177 67.6791 63.3348 67.6242C63.3927 67.6068 63.5269 67.5861 63.7813 67.6306C64.2402 67.7108 64.8663 67.9878 65.4552 68.5307ZM66.4492 70.5413C66.4487 70.5421 66.4486 70.5425 66.4487 70.5426C66.449 70.5428 66.451 70.5401 66.454 70.5342C66.4532 70.5352 66.4525 70.5361 66.4519 70.5369C66.4517 70.5372 66.4521 70.5367 66.4519 70.5369C66.4509 70.5385 66.4496 70.5405 66.4492 70.5413ZM66.491 70.4985C66.4966 70.4945 66.4997 70.493 66.4998 70.4933C66.5 70.4936 66.4973 70.4956 66.491 70.4985ZM63.3471 67.5953C63.3495 67.592 63.3503 67.5902 63.3501 67.5901C63.3498 67.5899 63.3478 67.5926 63.3448 67.5985C63.3457 67.5973 63.3465 67.5963 63.3471 67.5953ZM63.3077 67.6342C63.3022 67.6382 63.2991 67.6396 63.2989 67.6394C63.2988 67.6391 63.3015 67.6371 63.3077 67.6342Z" fill="black"/>
<path d="M95.7442 62.1285C96.2354 61.341 95.9844 60.4525 95.1838 59.724C94.7941 59.3693 94.3416 59.132 93.9512 59.0412C93.5515 58.9482 93.3496 59.0303 93.2682 59.0956C91.4618 60.5436 90.2925 60.9187 89.2736 61.0078C88.9837 61.0331 88.7647 61.0401 88.5862 61.0458C88.1415 61.0599 87.9486 61.0661 87.5396 61.3283L86.46 59.6447C87.3732 59.0592 88.1931 59.0415 88.7574 59.0293C88.8851 59.0265 88.9997 59.0241 89.0994 59.0154C89.6322 58.9688 90.4379 58.8011 92.0173 57.5351C92.7416 56.9544 93.648 56.9172 94.4045 57.0932C95.1704 57.2714 95.922 57.6916 96.5299 58.2448C97.7246 59.3319 98.6428 61.2606 97.4412 63.187C96.8073 64.2031 96.1022 65.0724 95.4557 65.7719C95.3616 65.5839 95.237 65.4123 95.081 65.2619C94.7306 64.9242 94.2636 64.7337 93.7355 64.6807C94.379 64.0139 95.1064 63.151 95.7442 62.1285Z" fill="black"/>
<path fill-rule="evenodd" clip-rule="evenodd" d="M89.0427 67.1427C87.3624 68.6916 86.8937 70.8084 87.996 71.8708C89.0982 72.9331 91.354 72.5388 93.0343 70.9899C94.7147 69.4411 95.1833 67.3243 94.0811 66.2619C92.9788 65.1995 90.7231 65.5939 89.0427 67.1427ZM90.4827 68.5307C89.8938 69.0735 89.586 69.6573 89.4907 70.0879C89.4378 70.3267 89.4568 70.4535 89.4739 70.5085C89.5318 70.5258 89.666 70.5465 89.9204 70.502C90.3793 70.4218 91.0054 70.1448 91.5943 69.602C92.1832 69.0592 92.491 68.4754 92.5863 68.0448C92.6392 67.806 92.6203 67.6791 92.6031 67.6242C92.5452 67.6068 92.4111 67.5861 92.1566 67.6306C91.6977 67.7108 91.0716 67.9878 90.4827 68.5307ZM89.486 70.5369C89.4885 70.5405 89.4894 70.5425 89.4892 70.5426C89.4889 70.5428 89.4869 70.5401 89.4839 70.5342C89.4847 70.5352 89.4854 70.5361 89.486 70.5369ZM89.4425 70.4955L89.4469 70.4985L89.4439 70.497L89.4403 70.495C89.4387 70.4941 89.438 70.4934 89.4381 70.4933M92.5878 67.5901C92.5875 67.5902 92.589 67.5932 92.5931 67.5985C92.5902 67.5926 92.5881 67.5899 92.5878 67.5901ZM92.6302 67.6342C92.6357 67.6382 92.6388 67.6396 92.639 67.6394C92.6392 67.6391 92.6364 67.6371 92.6302 67.6342Z" fill="black"/>
<path fill-rule="evenodd" clip-rule="evenodd" d="M72.0117 59.4743C73.3354 58.5179 75.2977 58 78.0101 58C80.7081 58 82.6692 58.472 83.9922 59.3639C85.3718 60.294 85.9541 61.6111 85.9973 62.9881C86.0389 64.3115 85.5874 65.6587 84.9944 66.8088C84.3962 67.969 83.6085 69.0172 82.867 69.7623C82.4078 70.2238 82.0767 70.9896 81.8734 72.1008C81.6726 73.1986 81.6188 74.4992 81.6059 75.9091C81.6019 76.3513 81.6019 76.8076 81.602 77.2689C81.6022 78.2418 81.6023 79.2383 81.564 80.1707C81.5074 81.5489 81.3648 82.9211 80.9703 84.0698C80.8958 84.2865 80.7402 84.6131 80.3948 84.824C80.0071 85.0609 79.6099 85.0175 79.3506 84.93C79.1151 84.8506 78.9272 84.717 78.8077 84.6229C78.6781 84.5208 78.556 84.4058 78.4541 84.3061C78.3716 84.2253 78.3013 84.1545 78.2379 84.0904C78.1457 83.9975 78.0679 83.919 77.9878 83.8458C77.8839 83.9278 77.7912 84.0092 77.6826 84.1046C77.5988 84.1781 77.5057 84.2599 77.3907 84.3566C77.1943 84.5219 76.8302 84.8249 76.4182 84.9435C76.1753 85.0134 75.8085 85.0511 75.437 84.8545C75.0752 84.6631 74.8911 84.3451 74.7977 84.0964C74.3721 82.9629 74.151 81.562 74.0124 80.1345C73.8997 78.9734 73.8369 77.7349 73.7765 76.5428L73.7764 76.5405C73.7622 76.2602 73.7481 75.9819 73.7335 75.7084C73.6558 74.2476 73.5641 72.9083 73.3746 71.8165C73.1757 70.6711 72.9034 70.0324 72.6347 69.7623C72.0278 69.1525 71.3518 68.1638 70.8408 67.0398C70.3298 65.9159 69.9385 64.5577 70.008 63.2127C70.0796 61.8288 70.6448 60.4618 72.0117 59.4743ZM77.8006 83.6943C77.7974 83.6927 77.7969 83.6922 77.7994 83.6936L77.8006 83.6943Z" fill="black"/>
</svg>
