<svg width="89" height="44" viewBox="0 0 89 44" fill="none" xmlns="http://www.w3.org/2000/svg">
<path d="M14.4205 40.6986H10.4205L12.3523 29.0623H16.3182C17.4735 29.0623 18.4318 29.3009 19.1932 29.7782C19.9545 30.2555 20.4886 30.9373 20.7955 31.8236C21.1061 32.7062 21.1591 33.7592 20.9545 34.9827C20.7576 36.1797 20.3693 37.2043 19.7898 38.0566C19.2102 38.9089 18.4659 39.5623 17.5568 40.0168C16.6477 40.4714 15.6023 40.6986 14.4205 40.6986ZM12.8295 38.8748H14.5284C15.3352 38.8748 16.0379 38.7214 16.6364 38.4145C17.2386 38.1039 17.7292 37.6437 18.108 37.0339C18.4905 36.4202 18.7557 35.6589 18.9034 34.7498C19.0511 33.8786 19.0417 33.1589 18.875 32.5907C18.7083 32.0187 18.3845 31.5926 17.9034 31.3123C17.4261 31.0282 16.7936 30.8861 16.0057 30.8861H14.1534L12.8295 38.8748ZM33.3551 35.0168C33.1506 36.2517 32.7472 37.3047 32.1449 38.1759C31.5464 39.0433 30.8153 39.7081 29.9517 40.1702C29.0919 40.6286 28.1657 40.8577 27.1733 40.8577C26.1316 40.8577 25.2377 40.6153 24.4915 40.1305C23.7453 39.6418 23.2074 38.943 22.8778 38.0339C22.5521 37.1248 22.4953 36.0339 22.7074 34.7611C22.9119 33.5301 23.3134 32.477 23.9119 31.602C24.5104 30.727 25.2434 30.0585 26.1108 29.5964C26.9782 29.1342 27.9138 28.9032 28.9176 28.9032C29.9517 28.9032 30.8381 29.1475 31.5767 29.6361C32.3191 30.121 32.8532 30.8199 33.179 31.7327C33.5085 32.6456 33.5672 33.7403 33.3551 35.0168ZM31.2812 34.7611C31.4214 33.9013 31.4081 33.1759 31.2415 32.585C31.0786 31.9941 30.7888 31.549 30.3722 31.2498C29.9555 30.9467 29.4422 30.7952 28.8324 30.7952C28.1733 30.7952 27.5634 30.96 27.0028 31.2895C26.446 31.6153 25.9725 32.0926 25.5824 32.7214C25.196 33.3502 24.9309 34.1153 24.7869 35.0168C24.6354 35.8805 24.6449 36.6058 24.8153 37.193C24.9858 37.7801 25.2812 38.2233 25.7017 38.5225C26.1222 38.818 26.6354 38.9657 27.2415 38.9657C27.8968 38.9657 28.5028 38.8028 29.0597 38.477C29.6165 38.1513 30.0881 37.6759 30.4744 37.0509C30.8646 36.4259 31.1335 35.6627 31.2812 34.7611ZM45.6321 32.9884H43.5412C43.5412 32.6399 43.4844 32.3312 43.3707 32.0623C43.2571 31.7895 43.098 31.5585 42.8935 31.3691C42.6889 31.1797 42.4465 31.0377 42.1662 30.943C41.8859 30.8445 41.5753 30.7952 41.2344 30.7952C40.5829 30.7952 39.9768 30.96 39.4162 31.2895C38.8556 31.6191 38.3802 32.0983 37.9901 32.727C37.5999 33.352 37.3291 34.1115 37.1776 35.0055C37.0374 35.8767 37.0507 36.6058 37.2173 37.193C37.3878 37.7801 37.6832 38.2233 38.1037 38.5225C38.5241 38.818 39.0355 38.9657 39.6378 38.9657C40.0052 38.9657 40.3575 38.9202 40.6946 38.8293C41.0317 38.7346 41.3423 38.5964 41.6264 38.4145C41.9143 38.2289 42.1662 38.0036 42.3821 37.7384C42.6018 37.4733 42.7723 37.1721 42.8935 36.835H45.0128C44.8385 37.388 44.5829 37.9089 44.2457 38.3975C43.9086 38.8824 43.5033 39.3104 43.0298 39.6816C42.5563 40.049 42.026 40.3369 41.4389 40.5452C40.8518 40.7536 40.2192 40.8577 39.5412 40.8577C38.4995 40.8577 37.6075 40.6153 36.8651 40.1305C36.1264 39.6418 35.5961 38.943 35.2741 38.0339C34.9522 37.121 34.8954 36.0282 35.1037 34.7555C35.312 33.5168 35.7135 32.4619 36.3082 31.5907C36.9067 30.7195 37.6359 30.0547 38.4957 29.5964C39.3594 29.1342 40.2893 28.9032 41.2855 28.9032C41.9446 28.9032 42.5431 28.9941 43.081 29.1759C43.6226 29.3577 44.0866 29.6248 44.473 29.977C44.8594 30.3255 45.1529 30.7536 45.3537 31.2611C45.5582 31.7649 45.651 32.3407 45.6321 32.9884ZM47.4205 30.8293L47.7159 29.0623H57L56.7045 30.8293H53.108L51.4716 40.6986H49.3807L51.017 30.8293H47.4205ZM56.858 40.6986L58.7898 29.0623H66.358L66.0625 30.8293H60.6023L60.0795 33.9884H65.1477L64.8523 35.7555H59.7841L59.2614 38.9316H64.767L64.4716 40.6986H56.858ZM75.8438 29.0623H77.9517L76.6903 36.6645C76.554 37.4979 76.2358 38.2308 75.7358 38.8634C75.2396 39.496 74.607 39.9903 73.8381 40.3464C73.0691 40.6986 72.2131 40.8748 71.2699 40.8748C70.3191 40.8748 69.5199 40.6986 68.8722 40.3464C68.2244 39.9903 67.7566 39.496 67.4688 38.8634C67.1847 38.2308 67.1108 37.4979 67.2472 36.6645L68.5085 29.0623H70.6165L69.3835 36.4884C69.304 36.9733 69.34 37.4051 69.4915 37.7839C69.6468 38.1589 69.9006 38.4543 70.2528 38.6702C70.6089 38.8861 71.054 38.9941 71.5881 38.9941C72.1222 38.9941 72.6032 38.8861 73.0312 38.6702C73.4593 38.4543 73.8097 38.1589 74.0824 37.7839C74.3551 37.4051 74.5313 36.9733 74.6108 36.4884L75.8438 29.0623ZM78.3111 40.6986L80.2429 29.0623H84.6065C85.5005 29.0623 86.2259 29.2176 86.7827 29.5282C87.3395 29.8388 87.7277 30.2744 87.9474 30.835C88.1671 31.3918 88.2145 32.0414 88.0895 32.7839C87.9683 33.5263 87.7031 34.1721 87.294 34.7214C86.8887 35.2668 86.3527 35.6892 85.6861 35.9884C85.0232 36.2877 84.2448 36.4373 83.3509 36.4373H80.2429L80.5384 34.6873H83.3679C83.8906 34.6873 84.33 34.6153 84.6861 34.4714C85.0421 34.3236 85.3224 34.1096 85.527 33.8293C85.7353 33.5452 85.8736 33.1967 85.9418 32.7839C86.0062 32.371 85.9815 32.0187 85.8679 31.727C85.758 31.4316 85.5478 31.2081 85.2372 31.0566C84.9304 30.9013 84.5156 30.8236 83.9929 30.8236H82.0611L80.419 40.6986H78.3111ZM85.1974 35.4259L87.2031 40.6986H84.8509L82.8963 35.4259H85.1974Z" fill="black"/>
<path d="M14.1264 23.5663H11.4901L15.5071 11.9299H18.6776L22.6889 23.5663H20.0526L17.1378 14.589H17.0469L14.1264 23.5663ZM13.9616 18.9924H20.1889V20.9128H13.9616V18.9924ZM26.4645 11.9299V23.5663H24.044V11.9299H26.4645ZM30.8239 11.9299V23.5663H28.4034V11.9299H30.8239ZM36.706 23.7367C35.8234 23.7367 35.0601 23.5492 34.4162 23.1742C33.776 22.7954 33.2817 22.2689 32.9332 21.5947C32.5848 20.9166 32.4105 20.1306 32.4105 19.2367C32.4105 18.3352 32.5848 17.5473 32.9332 16.8731C33.2817 16.195 33.776 15.6685 34.4162 15.2935C35.0601 14.9147 35.8234 14.7253 36.706 14.7253C37.5885 14.7253 38.3499 14.9147 38.9901 15.2935C39.634 15.6685 40.1302 16.195 40.4787 16.8731C40.8272 17.5473 41.0014 18.3352 41.0014 19.2367C41.0014 20.1306 40.8272 20.9166 40.4787 21.5947C40.1302 22.2689 39.634 22.7954 38.9901 23.1742C38.3499 23.5492 37.5885 23.7367 36.706 23.7367ZM36.7173 21.8617C37.1188 21.8617 37.4541 21.7481 37.723 21.5208C37.992 21.2897 38.1946 20.9753 38.331 20.5776C38.4711 20.1799 38.5412 19.7272 38.5412 19.2197C38.5412 18.7121 38.4711 18.2594 38.331 17.8617C38.1946 17.464 37.992 17.1496 37.723 16.9185C37.4541 16.6875 37.1188 16.5719 36.7173 16.5719C36.312 16.5719 35.9711 16.6875 35.6946 16.9185C35.4219 17.1496 35.2154 17.464 35.0753 17.8617C34.9389 18.2594 34.8707 18.7121 34.8707 19.2197C34.8707 19.7272 34.9389 20.1799 35.0753 20.5776C35.2154 20.9753 35.4219 21.2897 35.6946 21.5208C35.9711 21.7481 36.312 21.8617 36.7173 21.8617Z" fill="#27A042"/>
<path d="M50.9375 7.30422V5.88925H49.25V4.81847H50.9375V3.21231H52.0625V4.81847H53.75V5.88925H52.0625V7.30422L55 9.10157C55 9.10157 55.4375 9.36927 55.4375 9.90465V22.4863H53.1875V17.6678C53.1875 16.7807 52.432 16.0616 51.5 16.0616C50.568 16.0616 49.8125 16.7807 49.8125 17.6678V22.4863H47.5625V9.90465C47.5625 9.36927 48 9.10157 48 9.10157L50.9375 7.30422Z" fill="#27A042"/>
<path d="M42.2188 14.1878C41.6782 14.3367 41.375 14.7658 41.375 15.2585V22.4863H46.4375V12.8493L42.2188 14.1878Z" fill="#27A042"/>
<path d="M61.625 15.2585C61.625 14.7658 61.3218 14.3367 60.7812 14.1878L56.5625 12.8493V22.4863H61.625V15.2585Z" fill="#27A042"/>
</svg>
