<svg width="32" height="33" viewBox="0 0 32 33" fill="none" xmlns="http://www.w3.org/2000/svg">
<g clip-path="url(#clip0_34_32)">
<path d="M20.6667 19.1989H19.6133L19.24 18.8389C20.5467 17.3189 21.3333 15.3455 21.3333 13.1989C21.3333 8.4122 17.4533 4.5322 12.6667 4.5322C7.88 4.5322 4 8.4122 4 13.1989C4 17.9855 7.88 21.8655 12.6667 21.8655C14.8133 21.8655 16.7867 21.0789 18.3067 19.7722L18.6667 20.1455V21.1989L25.3333 27.8522L27.32 25.8655L20.6667 19.1989ZM12.6667 19.1989C9.34667 19.1989 6.66667 16.5189 6.66667 13.1989C6.66667 9.87886 9.34667 7.19886 12.6667 7.19886C15.9867 7.19886 18.6667 9.87886 18.6667 13.1989C18.6667 16.5189 15.9867 19.1989 12.6667 19.1989Z" fill="black"/>
</g>
<defs>
<clipPath id="clip0_34_32">
<rect width="32" height="32" fill="white" transform="translate(0 0.532196)"/>
</clipPath>
</defs>
</svg>
