<svg width="13" height="21" viewBox="0 0 13 21" fill="none" xmlns="http://www.w3.org/2000/svg">
<path d="M8 20.0048H4C3.73478 20.0048 3.48043 19.8995 3.29289 19.7119C3.10536 19.5244 3 19.2701 3 19.0048V12.8048H1C0.734784 12.8048 0.48043 12.6995 0.292893 12.5119C0.105357 12.3244 0 12.0701 0 11.8048V8.20484C0 7.93962 0.105357 7.68527 0.292893 7.49773C0.48043 7.31019 0.734784 7.20484 1 7.20484H3V5.50484C3.0701 3.98119 3.74062 2.54728 4.86497 1.51663C5.98932 0.485971 7.47602 -0.057573 9 0.00483733H12C12.2652 0.00483733 12.5196 0.110194 12.7071 0.297731C12.8946 0.485267 13 0.739621 13 1.00484V4.60484C13 4.87005 12.8946 5.12441 12.7071 5.31194C12.5196 5.49948 12.2652 5.60484 12 5.60484H9V7.20484H12C12.1544 7.20367 12.307 7.23827 12.4458 7.30593C12.5846 7.3736 12.7058 7.47248 12.8 7.59484C12.8931 7.71903 12.9561 7.86321 12.9839 8.01595C13.0116 8.16869 13.0035 8.3258 12.96 8.47484L11.96 12.0748C11.8995 12.2911 11.768 12.4808 11.5866 12.6132C11.4052 12.7456 11.1844 12.8131 10.96 12.8048H9V19.0048C9 19.2701 8.89464 19.5244 8.70711 19.7119C8.51957 19.8995 8.26522 20.0048 8 20.0048ZM5 18.0048H7V11.8048C7 11.5396 7.10536 11.2853 7.29289 11.0977C7.48043 10.9102 7.73478 10.8048 8 10.8048H10.24L10.68 9.20484H8C7.73478 9.20484 7.48043 9.09948 7.29289 8.91194C7.10536 8.72441 7 8.47005 7 8.20484V5.50484C7.02568 4.99193 7.24767 4.50855 7.62 4.15484C7.99233 3.80113 8.48645 3.60419 9 3.60484H11V2.00484H9C8.00681 1.94433 7.02982 2.27787 6.28098 2.9331C5.53214 3.58833 5.07186 4.51241 5 5.50484V8.20484C5 8.47005 4.89464 8.72441 4.70711 8.91194C4.51957 9.09948 4.26522 9.20484 4 9.20484H2V10.8048H4C4.26522 10.8048 4.51957 10.9102 4.70711 11.0977C4.89464 11.2853 5 11.5396 5 11.8048V18.0048Z" fill="#FFFCFC"/>
</svg>
